<?xml version="1.0" encoding="utf-8"?>

<!DOCTYPE svg PUBLIC "-//W3C//DTD SVG 1.1//EN" "http://www.w3.org/Graphics/SVG/1.1/DTD/svg11.dtd">
<svg version="1.1" id="Layer_1" xmlns="http://www.w3.org/2000/svg" xmlns:xlink="http://www.w3.org/1999/xlink" x="0px" y="0px"
	 viewBox="0 0 2018.114 1783.234" enable-background="new 0 0 2018.114 1783.234" xml:space="preserve">
<g>
	<path fill="#693A0C" stroke="#693A0C" d="M1392.394,50.473c17.56-11.8,37.92-19.37,58.91-21.93c7.47-0.76,15.08-0.59,22.45,0.96
		c10.94,1.91,21.65,5.32,31.42,10.64c2.76,1.57,5.77,2.96,7.92,5.39c0.6,0.96,1.5,1.7,2.63,2.03c4.87,2.52,8.5,6.88,12.19,10.86
		c15.47,19.31,23.27,43.99,24.64,68.49c-0.25,4.52-0.27,9.05-0.03,13.58c-1.34,22.28-6.15,44.22-11.26,65.91
		c-4.63,20.04-11.45,39.45-18.02,58.91c-7.36,20.35-15.99,40.23-25.31,59.76c-3.93,9.1-8.59,17.85-13.38,26.52
		c-5.06,10.11-10.86,19.81-16.35,29.68c-1.24,1.98-1.06,4.49-2.18,6.49c-0.92,1.13-0.65,1.67,0.83,1.62
		c6.55,3.71,14.05,5.09,20.84,8.28c24.23,10.73,46.02,26.53,64.77,45.18c13.58,14.65,26.49,30.1,36.63,47.37
		c12.38,20.23,20.75,43.15,22.26,66.94l0.14,0.74c16.94-0.28,33.9,0.07,50.86-0.19c4.84,0.33,9.69,0.48,14.54,0.79
		c4.47,0.44,8.96,0.35,13.45,0.21c7.81,0.9,15.68,0.11,23.51,0.77c12.14,0.65,24.38,0.7,36.52-0.01c6.59-0.38,13.22-0.33,19.81-0.56
		c2.24,0.54,4.55,0.41,6.78-0.25c4.02-0.58,8.14-0.93,12.23-0.76c2.23,0.52,4.55,0.43,6.78-0.23c4.2-0.65,8.51-0.75,12.78-0.81
		c10.55,0.27,21.12,0.01,31.68-0.04c21.19,0.71,42.28,4.8,62.26,11.88c4.49,1.84,9.69,3.06,12.93,6.96c0.24,1.7,0.69,3.98-0.82,5.24
		c-14.34,11.37-32.7,15.87-50.59,17.57c-3.48-0.03-4.67,3.63-5.5,6.36c-5.29,18.21-12.83,36.17-25.22,50.76
		c-6.27,8.07-14.52,14.24-22.53,20.45c-2.97,2.11-4.21,5.6-5.05,8.99c-2.19,8.32-5.69,16.3-10.55,23.42
		c-8.02,12.52-20.21,21.67-32.85,29.14c-8.48,5.35-17.78,9.17-26.99,13.03c-5.36,2.18-6.33,8.5-9.1,12.93
		c-6.41,11.83-16.55,21.09-27.89,28.1c-5.17,3.99-11.78,5.85-16.33,10.64c-12.21,14.76-25.95,28.72-42.65,38.38
		c-18.56,11.16-39.72,18.3-61.44,19.13c-23.5-1-46.34-7.09-69.6-10.07c-14.38-1.39-28.93-2.49-43.33-0.72
		c-24.34,0.76-48.37,5.76-71.73,12.43c-37.64,11.48-73.75,27.75-107.84,47.36c-1.49,0.98-2.81,2.19-4.07,3.44l-0.36,0.35l0.12,0.47
		c0.58,4.34,4.55,6.73,7.59,9.35c14.71,12.01,29.71,23.67,44.65,35.4c23.12,18.54,45.74,37.74,69.6,55.34
		c6.54,4.58,12.48,10.37,20.23,12.9c23.73,7.36,47.14,15.84,71.36,21.53c18.47,4.54,37.51,6.26,56.47,6.73
		c8.29,1.12,16.69,0.83,24.98,2.02c20.37,2.33,41.28,6.06,59.13,16.7c9.03,5.27,16.75,12.58,23.19,20.76
		c3.06,3.79,4.82,9.48,9.86,11.06c24.66,2.3,49.32,4.83,73.89,8.04c4.51,0.52,9.07,1.65,13.64,1.09c4.13-3.07,5.81-8.22,8.31-12.53
		c12.61-23.49,24.02-47.63,37.42-70.69c9.69-16.96,20.7-33.12,32.04-49c3.25-4.03,6.47-8.37,10.9-11.16
		c1.07-0.41,1.96-1.18,2.54-2.19c2.28-2.78,5.81-4.62,9.35-5.14c1.74,0.01,3.51,0.02,5.31,0.03c6.15,0.87,9.49,7.21,10.59,12.77
		c0.99,6.02,1.6,12.12,1.89,18.22c-0.03,3.68,2.45,7.5,6.02,8.62c11.03,1.16,22.12-0.43,32.94-2.57c6.38-0.79,12.83-3,19.28-1.54
		c6.4,1.3,13.46,2.9,17.73,8.3c4.06,4.59,5.23,11.16,3.82,17.03c-2.12,11.34-6.97,22.14-7.25,33.8c-0.39,3.17-0.45,6.39-0.01,9.58
		c0.11,4.19,1.58,8.41,5.1,10.96c7.57,5.56,17.6,6.25,25.21,11.79c4.11,2.97,8.08,6.89,9.29,12c-0.01,5.17-3.93,9.37-7.69,12.49
		c-12.38,9.5-27.91,13.03-42.58,17.34c-15.16,3.89-30.36,7.99-44.67,14.41c-7.84,3.09-14.96,7.63-22.32,11.67
		c-20.06,11.15-38.6,25.05-59.67,34.34c-8.67,3.89-17.98,6.07-27.28,7.81c-8.59,1.67-17.46,1.44-26.05-0.09
		c-21.63-3.27-41.8-12.11-61.99-20.08c-6.39-2.29-12.9-5.3-19.84-4.85c-1.58,1.08-1.91,3.07-2.28,4.82
		c-3.32,17.92-8.18,35.54-14.23,52.73c-10.27,32.33-23.36,63.96-41.09,92.95c-9.47,15.05-20.5,29.39-34.33,40.69
		c-7.54,6.33-16.42,10.97-25.63,14.34c-7.66,1.99-15.73,4.5-23.66,2.5c-18.09-3.19-34.18-12.74-49.17-22.9
		c-13.44-9.43-26.19-19.78-39.01-30.01c-13.92-10.67-28.75-20.35-45.04-26.99c-11.26-4.52-22.71-8.93-34.76-10.76
		c-2.5-1.08-2.3,1.7-0.89,2.85c2.54,7.2,7.07,13.42,10.33,20.3c9.23,17.81,16.96,36.38,23.74,55.25
		c11.29,30.51,19.38,62.26,23.37,94.57c0.86,7.42,1.81,14.85,1.69,22.34c0.03,8.14,0.12,16.29,0.03,24.45
		c-0.32,7.07,0.57,15.05-3.95,21.07c-5.35,4.13-12.09,5.94-18.16,8.77c-21.28,8.58-43.67,14.15-66.33,17.6
		c-19.21,2.71-38.55,4.38-57.84,6.41c-8.87,0.98-17.79,1.39-26.64,2.37c-5.37,1.89-7.67,7.77-11.13,11.85
		c-13.18,16.06-30.36,29.59-50.58,35.35c-9.83,3.33-20.26,4.88-30.63,4.36c-27.47-1.92-54.1-10.03-79.4-20.56
		c-6.22-2.46-11.97-6.29-18.76-6.99c-0.13-0.03-0.39-0.1-0.53-0.13l-0.8-0.26c-0.34-1.45-3.4-1.45-2.04,0.26
		c0.4,0.12,1.21,0.35,1.61,0.47c0.46,6.61,4.85,11.76,7.64,17.5c10.41,20.43,20.97,40.9,28.24,62.71
		c3.7,11.27,7.59,22.53,9.88,34.21c0.97,5.29,3.05,11.07,0.57,16.27c-2.29,0.65-4.79,0.27-6.64-1.25
		c-5.1-3.76-10.29-8.06-16.78-8.98c-6.81-0.62-14.05-0.79-20.25,2.55c-15.79,7.71-26.87,21.99-41.48,31.45
		c-5.47,3.78-11.72,6.57-18.3,7.66c-6.76,0.32-12.75-3.99-17.24-8.63c-9.01-9.91-12.4-23.62-21.58-33.39
		c-4.7-4.94-11.03-9.07-18.08-8.89c-7,0.12-14.11-0.55-20.99,1.05c-7.97,1.72-15.75,4.18-23.58,6.44
		c-6.61,2.03-14.28-1.41-17.48-7.45c-2.24-4.28-3.67-9.19-2.84-14.03c1.52-9.31,4.59-18.27,7.68-27.16
		c11.9-36.43,33.45-68.59,55.37-99.65c15.93-22.51,29.71-46.96,49.94-66.05c11.78-12.78,29.77-20.77,47.24-17.57
		c21.87,3.91,41.88,14.02,61.98,23.06c4.49,2.09,8.91,4.72,13.93,5.33c1.29,0.16,1.86-0.41,1.69-1.73
		c-0.11-5.71-3.42-10.52-5.7-15.53c-3.46-7.41-8.74-13.77-14.6-19.39c-11.7-12.43-26.77-20.81-40.89-30.1
		c-9.17-6.1-18.47-12.06-26.83-19.25c-5.56-5.06-11.62-9.64-16.47-15.42c-3.33-4.03-6.89-7.84-10.1-11.96
		c-4.88-6.67-12.78-9.87-19.13-14.84c-8.46-6.49-17.26-12.64-24.85-20.18c-7.2-6.45-14.46-12.85-21.34-19.64
		c-7.65-6.65-14.96-13.7-21.55-21.4c-12.21-12.88-24.1-26.11-34.71-40.35c-20.72-27.87-37.78-58.51-49.97-91.05
		c-8.51-22.5-15.23-45.7-19.64-69.35c-1.23-6.74-3.73-13.16-5.13-19.85c-0.66-2.56-1.07-5.26-2.5-7.5
		c-1.48-1.87-4.02-2.23-6.15-2.89c-21.19-5.33-41.9-12.33-62.53-19.47c-38.24-13.69-73.81-33.62-111.57-48.48
		c-2.68-1.09-5.57-1.41-8.34-2.12c-1.25-0.76-2.75-0.76-3.96,0.04c-9.73,1.28-19.11,4.39-28.82,5.82
		c-14.22,2.48-28.82,3.85-43.18,1.73c-20.06-2.03-40.12-7.24-57.6-17.51c-7.11-4.38-13.88-9.31-20.2-14.76
		c-2.41-1.97-4.82-4.22-7.91-5c-5.78-1.04-11.67-0.12-17.5-0.24c-18.79-2.05-37.38-7.81-53.47-17.87
		c-13.06-7.76-25.15-17.4-34.76-29.23c-1.73-2.09-3.62-4.08-5.82-5.67c-1.9-1.56-4.47-0.76-6.64-0.45
		c-13.14-0.37-26.15-3.57-38.49-8c-27.84-10.9-51.24-31.53-67.63-56.33c-1.94-3-4.09-6.35-7.83-7.19
		c-18.1-5.15-35.9-11.37-53.14-18.91c-4.5-1.86-8.85-4.24-13.66-5.2c-3.18-0.73-6.45-0.38-9.64,0.02
		c-7.55,0.65-15.15,0.1-22.73,0.31c-14.82-0.86-29.56-3.62-43.62-8.42c-13.69-5.19-26.49-12.79-37.36-22.63
		c-3.48-3.24-7.94-6.14-9.36-10.92c0.77-1.61,2.92-1.6,4.45-1.9c23.51-1.07,46.49-6.98,68.8-14.17
		c25.65-9.01,50.43-20.27,74.68-32.5c45.31-23.71,89.79-49.05,136.11-70.76c34.6-15.73,71.13-28.51,109.24-31.65
		c5.07-0.09,10.13-1.09,15.2-0.43c32.39,1.69,63.84,11.98,92.54,26.72c38.54,20.07,72.34,47.75,105.77,75.2
		c31.45,26.31,64.17,51.05,95.57,77.44c13.65,11.64,27.28,23.32,40.7,35.23c5.22,4.63,9.87,10.15,16.32,13.13
		c0.84,1.21,1.44,1.11,1.8-0.3c0.83,0.02,2.49,0.05,3.33,0.07l-0.66,0.54c-0.71,0.52-1.39,1.07-2.04,1.65
		c11.87,11.83,24.3,23.17,35.71,35.49c13.99,14.4,27.28,29.47,40.1,44.91c1.66,2,3.31,4.02,4.62,6.29
		c-0.46,0.16-1.39,0.47-1.85,0.63c-5.97-3.73-10.96-8.86-16.53-13.15c-60.44-50.39-116.16-106.17-177.36-155.67
		c-34.45-26.74-66.6-56.36-101.76-82.19c-21.46-15.71-44.19-29.98-68.84-40.17c-20.15-8.27-41.67-13.51-63.49-14.14
		c-37.12-0.91-73.86,7.96-108.23,21.5c-37.42,14.58-72.55,34.2-107.91,53.07c-27.86,15.03-56.21,29.19-85.27,41.75
		c-28.31,12.12-57.92,21.87-88.62,25.46c12.42,11.25,28.41,18.44,44.95,20.98c14.16,2.7,28.62,2.54,42.95,2.16
		c31.8-2.23,63.16-9.07,93.46-18.85c30.81-9.86,60.8-22.09,90.74-34.3c32.21-13.34,64.91-27.23,99.89-31.1
		c35.33-3.56,70.9,4.17,103.57,17.38c26,10.39,50.58,23.98,74.34,38.71c13.81,8.69,27.63,17.42,40.65,27.28
		c17.33,12.87,33.77,26.87,50.21,40.85c25.03,21.08,51.41,41.84,68.89,70.03c0.93,1.57,1.72,3.23,2.46,4.93
		c-4.61-4.55-8.09-10.07-12.54-14.75c-22.38-24.88-49.39-44.97-76.4-64.48c-12.93-10.93-26.81-20.7-40.5-30.65
		c-15.69-11.29-31.96-21.78-48.91-31.07c-24.95-13.72-50.05-27.49-76.95-37.07c-20.71-7.33-42.69-11.73-64.73-10.72
		c-32.29,1.35-63.4,11.48-93.09,23.63c-52.48,21.48-103.81,46.99-159.42,59.59c-5.81,1.52-11.78,2.26-17.63,3.61
		c3.72,2.17,7.92,3.3,11.93,4.81c6.88,2.37,13.74,4.86,20.8,6.68c17.63,5.35,35.85,8.75,54.23,10.02
		c16.72,1.43,33.52-0.34,50.05-2.81c40.13-6.17,79.65-20.2,112.45-44.53c4.71-3.3,8.76-7.46,13.58-10.62
		c-6.43,8.27-15.12,14.38-23.02,21.14c-23.9,17.6-50.67,31.35-79.11,39.93c-22.58,6.91-46.21,10.78-69.85,10.32
		c-7.43-0.19-14.8-1.45-22.23-1.46c6.86,8.65,15.33,15.96,23.93,22.83c14.15,11.26,30.43,20.18,48.05,24.56
		c15.17,3.94,31.06,3.12,46.47,1.27c32.28-3.73,63.3-15.92,90.26-33.93c9.22-5.91,17.45-13.16,26.29-19.58
		c-1.86,2.41-3.92,4.66-5.94,6.94c-21.82,20-45.79,38.19-73.12,49.98c-12.99,5.88-26.79,9.64-40.74,12.38
		c4.88,6.46,11.23,11.74,17.59,16.72c5.8,4.66,12.41,8.13,19.06,11.4c11.79,5.68,24.31,10.02,37.3,11.86
		c18.78,2.89,37.9-0.27,56.05-5.2c27.2-8.01,51.96-23.13,72.83-42.16c5.26-4.73,9.87-10.12,15.19-14.77
		c-0.03,0.42-0.08,1.27-0.11,1.7c-10.3,11.73-20.79,23.38-32.91,33.29c-20.37,17.14-44.21,30.35-70,37.19
		c7.06,6.48,15.76,11.02,24.44,14.98c16.94,8,35.87,11.51,54.56,11.2c23.42,0.07,47.07-1.6,69.78-7.64
		c16.38-4.36,31.36-12.56,45.88-21.12c10.12-5.63,19.74-12.36,30.59-16.55c-1.06,1.28-2.19,2.5-3.32,3.72
		c-6.41,3.38-11.97,8.08-17.76,12.38c-15.13,11.61-30.35,23.7-48.23,30.82c-1,0.45-1.93,1.02-2.83,1.65
		c6.8,2.65,13.71,5.04,20.52,7.69c20.61,8.68,41.04,17.81,61.79,26.15c35.36,14.11,72.34,23.51,109.18,32.84
		c15.37,4.01,31.97,7.05,44.38,17.7c6.18,5.07,9.49,12.52,12.32,19.79c-0.15,1.35-0.34,2.7-0.58,4.06c-2.6,0.01-4.12-2.24-5.74-3.9
		c-9.57-10.64-23.23-16.46-36.76-20.24c-6.41-1.75-12.85-3.48-19.42-4.42c0.58,10.93,7.15,20.07,13.06,28.81
		c8.93,12.71,20.71,24.52,35.98,29.02c13.85,4.12,28.91,0.17,40.79-7.5c12.93-8.24,21.82-21.52,27.54-35.51
		c6.96-16.9,10.15-35.11,11.37-53.27c1.78-39.22-9.82-78.31-29.42-112.05c-9.84-16.87-21.82-32.52-35.7-46.27
		c-10.42-10.14-21.6-19.74-34.31-26.89c-4.1-2.37-7.95-6.45-12.9-6.45c-9.12,2.59-18.04,5.92-26.99,9.06
		c-0.35-0.29-1.04-0.86-1.38-1.15c2.26-2.44,5.6-3.36,8.41-4.98c45.71-24.57,95.52-40.21,145.56-53.23
		c3.78-1.03,8.45-1.86,10.1-5.97c8.66-19.26,14.28-39.69,20.06-59.96c7.1-27.26,15.21-54.25,22.71-81.4
		c0.98-3.18,1.17-6.51,1.49-9.8c1.37-0.41,1.45-1.02,0.24-1.84c-4.06-6.59-10.8-10.81-16.23-16.17
		c-14.58-14.45-29.54-28.7-41.51-45.47c-9.63-12.37-17.92-25.7-25.63-39.33c-15.27-28.57-27.69-58.54-40.99-88.04
		c-0.87-1.52-2.02-2.84-2.99-4.27c-0.79-1.27-1.41-1.21-1.84,0.17c-5.49,0.06-10.81,1.34-16.16,2.32
		c-19.44,3.47-39.86-1.36-56.5-11.74c-12.11-7.98-22.26-18.79-29.95-31.05c-6.79-11.02-11.21-23.35-14.13-35.91
		c-0.7-3.23-1.45-6.48-1.37-9.79c0.89-0.32,1.78-0.62,2.69-0.92c3.77,2.26,6.73,5.6,10.32,8.13c8.8,6.59,18.75,12.48,29.81,13.98
		c8.36,0.04,17.38,1.33,25.01-2.97c10.12-4.73,17.17-13.86,22.8-23.2c9.02-14.98,13.48-32.33,14.58-49.69
		c1.37-9.31,0.19-18.74,0.84-28.08c1.69-14.7,4.51-29.34,9.5-43.3c9.63-27.37,26.06-52.04,45.82-73.13
		c3.52-4.8,8.07-8.65,12.14-12.95c7.88-6.39,14.84-13.86,23.04-19.9c18.66-15.23,39.29-28.2,61.64-37.29
		c31.18-12.87,64.65-20.23,98.34-21.75c5.14,0.52,10.31,0.55,15.47,0.26c22.47,0.05,44.65,4.89,66.22,10.89
		c15.79,4.7,31.18,10.75,46.04,17.87c18.84,9.77,36.94,21.13,53.39,34.59c1.89,1.39,3.96,2.55,5.87,3.93
		c0.87,0.85,1.69,0.83,2.45-0.05c4.97-4.72,7.41-11.26,11.05-16.93c11.13-18.42,23.17-36.42,37.53-52.5
		C1368.274,69.643,1379.474,58.903,1392.394,50.473 M1397.924,55.023c-25.46,16.36-45.26,39.96-62.33,64.62
		c-22.22,32.8-39.27,68.66-57.05,103.95c-3.05,6.66-7.29,12.79-9.6,19.76c-1.4,1.24-2.3,2.89-3.11,4.53
		c-22.66,43.7-52.34,84.1-89.51,116.55c-25.95,22.67-55.73,41.36-88.39,52.65c-1.4,0.37-2.6,1.18-2.73,2.73
		c4.23,0.37,8.55,0.17,12.7-0.82c9.18-2.18,18.4-4.35,27.22-7.76c31.38-11.41,59.39-30.65,83.72-53.3
		c27.65-25.72,50.97-55.71,72.03-86.95c20.28-30.46,36.75-63.29,57.61-93.38c17.16-24.97,37.69-48.71,64.56-63.51
		c16.99-9.23,36.59-15.2,56.05-12.65c9.22,1.39,18.23,5.25,24.88,11.91c7.72,7.7,12.67,17.76,15.93,28.06
		c5.49,17.46,5.55,36.01,4.67,54.13c-1.43,18.96-4.64,37.81-10.12,56.04c-11.72,40.48-32.25,77.74-54.97,113
		c-3.95,6.51-8.81,12.49-12.29,19.27c5.33,0.12,10.68-0.13,16,0.55c3.81,0.32,7.55,1.39,11.4,1.41
		c14.12-29.52,28.1-59.13,40.75-89.32c16.34-39.19,30.65-79.47,38.89-121.21c1.13-6.61,3.01-13.16,3.08-19.89
		c0.15-0.35,0.46-1.04,0.61-1.38c2.81-21.98,3.45-44.87-3.39-66.21c-4.41-13.9-13.08-26.59-25.18-34.86
		c-16.2-10.79-35.71-16.77-55.21-16.13C1434.144,37.373,1414.714,44.353,1397.924,55.023 M1039.204,111.233
		c-49.45,16.43-94.22,47.96-124.36,90.7c-10.84,15.32-20.75,31.61-26.44,49.61c-4.88,14.68-6.15,30.23-6.99,45.58
		c-0.67,17.26-2.41,34.6-7,51.3c-4.68,16.57-13.2,32.39-26.24,43.85c-8.57,7.49-19.46,12.91-31.04,12.91
		c-11.86-0.07-23.24-4.68-33.25-10.75c-3.84-2.24-7.07-5.4-11.02-7.44c2.51,8.75,7.12,16.8,12.04,24.42
		c9.36,13.94,22.54,25.87,38.62,31.34c10.36,3.88,21.6,4.14,32.53,3.75c10.97-0.42,21.75-2.93,32.17-6.28
		c23.26-7.73,44.36-20.63,64.53-34.35c3.49-2.27,6.68-5.08,10.57-6.68c-0.2,1.09-0.64,2.06-1.33,2.91
		c-10.23,11.17-20.72,22.14-31.89,32.36c-4.44,3.1-8.44,6.79-13,9.72c-8.23,5.78-17.43,9.93-26.88,13.26
		c2.17,6.2,6.26,11.54,9.33,17.33c17.27,29.34,33.8,59.14,52.16,87.83c3.85,5.52,7.02,11.6,11.64,16.54
		c1.77,3.93,4.67,7.19,7.11,10.71c26.2,35.31,56.51,67.45,89.33,96.66c1.93,1.83,4.45,3.3,5.43,5.92c-1.14-0.16-2.19-0.54-3.13-1.14
		c-15.45-10.19-30.14-21.47-44.98-32.48c-1.96,5.39-2.17,11.25-3.57,16.81c-6.41,30.51-12.97,61-20.8,91.19
		c-5.93,21.9-13.75,43.27-22.92,64.01c-0.68,1.57,0.77,2.96,1.36,4.33c11.06,18.54,23.52,36.77,40.01,50.9
		c3.67,4.4,8.44,7.68,12.92,11.2c9.66,7.04,19.89,13.44,30.97,18.01c6.38,2.52,13.06,4.68,19.99,4.69
		c9.83,0.48,19.58-4.52,25.38-12.39c5.84-7.57,8.22-17.16,9.39-26.48c1.08-7.17,1.07-14.44,0.8-21.66
		c-1.76-27.78-7.53-55.33-6.36-83.27c1.52-21.88,5.2-43.65,10.92-64.83c4.72-17.25,11.67-33.77,18.63-50.2
		c-6.72,3.18-12.58,7.88-18.73,12.01c-4.5,3.54-9.54,6.57-13.49,10.7c-3.01,1.84-5.28,4.61-8.26,6.48c1.54-3.25,4.31-5.6,6.72-8.16
		c34.25-35.14,76.84-61.22,121.9-80.13c20.1-8.66,40.88-15.59,61.45-22.98c10.88-2.91,21.57-6.56,32.54-9.18
		c-3.18-2.77-6.87-4.84-10.25-7.31c-18.06-12.58-35.9-25.46-54-37.98c-32.12-22.13-65.07-43.64-101.17-58.76
		c-16.39-6.51-33.2-12.47-50.62-15.43c-3.92-1.49-8.13-1.87-12.21-2.69c-3.72-0.56-7.45-1.57-11.23-1.25
		c-4.23,6.92-9.58,13.14-16,18.11c-4.76,3.33-9.48,7.2-15.22,8.64c7.62-7.05,14.77-14.71,20.11-23.68
		c11.31-18.34,17.07-39.83,17.72-61.28c0.21-5.28-0.87-10.5-0.67-15.77c0.3,0.02,0.91,0.05,1.21,0.07c2,13.7,3.45,27.54,2.59,41.4
		c49.18-19.68,90.84-54.76,124.16-95.43c22.31-27.21,41.47-56.94,57.9-88.02c1.81-11.6,0.2-24.58-7.46-33.95
		c-10.52-13.18-29.2-19.3-45.33-13.98c-17.89,6.1-32.59,23.23-32.47,42.65c-0.59,11.98,5.17,23.34,13.26,31.86
		c4.1,4.84,9.33,8.52,13.72,13.07c-9.49-3.53-17.95-9.62-24.95-16.87c-6.73-7.35-11.55-16.92-11.39-27.06
		c0.32-19.41,11.14-38.77,28.41-48.03c13.14-6.71,29.06-8.95,43.2-4.12c10.86,3.59,19.52,12.36,24.58,22.44
		c3.75,7.31,4.02,15.65,3.59,23.68c7.56-12.67,13.18-26.41,20.14-39.42c3.36-6.84,7.07-13.53,10.26-20.45
		c-4.15-3.87-9-6.89-13.55-10.23c-31.87-22.33-67.57-39.65-105.6-48.38c-22.79-5.17-46.34-6.85-69.65-5.27
		C1089.264,97.953,1063.654,102.893,1039.204,111.233 M1423.074,114.993c-25.39,8.54-45.8,27.25-62.34,47.76
		c-36.76,46.82-63.55,100.4-98.86,148.24c-9.26,12.8-19.56,24.81-30,36.64c-5.8,5.63-11.25,11.63-17.35,16.94
		c-27.87,26.02-61.15,47.34-98.33,56.94c2.82,1.98,6.74,1.57,10.02,2.46c10.08,1.47,19.75,4.91,29.65,6.98
		c5.7,2.85,12.09,3.93,17.86,6.65c2.27,0.83,4.49,2.38,7.01,2.24c8.71-9.13,18.42-17.72,30.05-22.94c8.67-4.08,18.18-5.75,27.55-7.4
		c34.24-5.7,69.46-0.65,102.14,10.37c2.71,0.83,5.43,2,8.33,2c4.31-4.03,8.59-8.19,12.38-12.73c2.84-1.7,5.13-4.14,7.79-6.09
		c13.11-10.01,29.28-14.88,45.34-17.62c1.43-0.35,3.31-0.44,3.96-2.05c23.8-44.05,46.57-88.97,62.39-136.6
		c7.39-23.11,13.15-47.16,12.57-71.58c0.2-13-2.04-26.1-6.93-38.16c-4.71-11.38-13.88-21.66-26.08-24.92
		C1447.894,108.903,1435.034,111.493,1423.074,114.993 M1426.094,395.473c1.96,0.75,4.01,1.2,6.09,1.59
		c32.95,6.94,64.36,22,89.54,44.49c13.02,11.37,25.03,24.07,34.49,38.6c8.76,13.27,15.12,28.44,16.48,44.4
		c1.95,20.39-4.56,41.63-18.31,56.92c-9.47,10.71-22.29,18.04-35.87,22.19c-22.2,7.64-46.44,7.42-69.18,2.36
		c-20.05-4.33-39.1-12.35-57.26-21.76c-29.07-15.26-55.81-34.44-82.4-53.58c-33.42-24.03-66.98-48.13-103.21-67.83
		c-34.16-18.73-71.23-32.96-110.04-37.92c-3.9-0.26-8.05-1.54-11.84-0.38c-1.19,4.95-2.68,9.82-4.25,14.66
		c22.5,0.98,45.13,4.29,66.22,12.51c42.05,16.9,80.07,42.07,117.02,67.97c33.08,23.07,65.48,47.25,100.23,67.8
		c30.29,17.93,62.54,33.32,97.07,40.96c21.35,4.69,43.61,6.27,65.26,2.69c17.56-3.06,35.09-9.35,48.68-21.21
		c12.18-10.41,20.36-25.3,22.84-41.11c3.22-17.9-0.39-36.37-7.12-53.04c-7.31-17.51-17.8-33.56-29.99-48.05
		c-21.05-24.86-45.81-47.63-75.82-61.1C1466.444,398.243,1446.154,394.613,1426.094,395.473 M1380.554,410.673
		c-7.59,2.25-13.7,7.5-20.29,11.66c-1.05,1-3.34,1.58-2.78,3.4c5.63,2,11.16,4.26,16.67,6.6c16.59,7.28,32.44,16.65,45.65,29.15
		c15.26,13.95,27.8,30.51,39.73,47.31c3.9,5.92,8.73,11.26,11.91,17.63c-4.48-3.43-7.22-8.5-11-12.59
		c-13.57-16.63-27.55-33.26-44.74-46.3c-1.77-1.26-3.29-3.01-5.41-3.62c-3.78-3.34-8.25-5.74-12.51-8.39
		c-16.46-9.6-34.14-17.04-52.34-22.63c-21.19-6.8-43.04-11.87-65.26-13.61c-23.25-1.82-47.41,0.84-68.46,11.42
		c-4.69,2.67-9.96,4.68-13.81,8.56c-3.03,0.89-5.85,2.83-7.58,5.49c5.91,2.77,11.84,5.49,17.59,8.6c5.75,2.84,11.08,6.55,17.06,8.93
		c4.34,3.86,9.79,6.17,14.53,9.5c42.67,27.46,80.94,61.21,124.18,87.85c29.21,17.91,61.06,32.98,95.37,37.42
		c19.15,2.5,39.07,1.94,57.48-4.36c14.66-4.99,28.04-14.66,35.94-28.15c11.08-17.57,11.75-40.89,2.71-59.41
		c-0.11-1.4-0.7-2.67-1.21-3.92c-7.37-15.62-18.02-29.51-30.29-41.6c-4.78-4.17-9.05-9.08-14.51-12.36
		c-4.73-4.75-10.5-8.28-15.92-12.16c-17.28-11.49-36.28-20.72-56.53-25.55C1418.344,405.173,1398.634,404.613,1380.554,410.673
		 M1802.044,567.743c-38.41,2.23-76.92,3.68-115.38,1.97c-25.43-0.49-50.91-1.7-76.31-0.07c-1.44,4.92-2.06,10.07-3.97,14.86
		c-2.22,6.93-5.99,13.18-9.21,19.66c6.37-0.77,12.67-2.06,19.06-2.73c49.11-6.64,98.85-4.79,148.1-9.74
		c22.23-1.71,44.45-4.25,66.78-3.88c15.15,0.09,30.4,0.21,45.42-2.2c7.39-1.37,14.82-3.12,21.56-6.57
		c-0.63-1.12-2.09-1.21-3.11-1.68C1865.114,567.563,1833.234,565.673,1802.044,567.743 M1327.424,579.223
		c-2.49-0.15-4.97,0.16-7.33,0.9c-27.19,8.71-53.74,19.25-80.29,29.71c-17.63,7.46-35.57,14.18-53.02,22.06
		c-10.56,4.53-20.62,10.09-30.94,15.1c-3.81,1.9-8.19,3.77-10.02,7.92c-3.1,6.82-5.27,14.03-8.01,21
		c-9.45,28.91-17.17,58.69-18.88,89.18c-1.11,5.63-0.21,11.43-0.59,17.13c0.24,1.6-0.63,3.84,0.77,5.04
		c5.74-0.12,11.56,0.28,17.25-0.84c1.11,1.69,5.41,1.48,6.44-0.25c4.4,0.35,8.8-0.14,13.19-0.6c3.68,0.52,7.42,0.23,11.14,0.21
		c9-0.21,18.02,0.35,27-0.18c18.54,1.13,37.14,2.83,55.23,7.25c4.6,1.05,9.19,2.7,13.99,2.34c-0.63,1.78,3.09,1.78,2.47-0.01
		c3.3,0.32,6.56-0.5,9.66-1.59c23.78-8.02,46-20.62,65.16-36.84c7.67-5.94,14.24-13.1,21.12-19.9
		c25.51-28.11,45.12-60.79,68.29-90.73c2.68-3.54,6.33-7.03,6.58-11.72c-2.31-2.59-5.66-3.82-8.8-5.01
		c-32.3-11.97-62.35-29.13-91.26-47.71c-2.04-1.21-4.2-2.66-6.67-2.46C1330.464,577.413,1326.724,577.413,1327.424,579.223
		 M1796.884,600.723c-26.59,1.66-53.2,3.14-79.83,3.85c-43.15,1.75-86.49,4.15-128.9,12.74c-2.03,0.28-3.55,1.66-4.93,3.02
		c-5.49,5.33-11.8,9.78-18.47,13.49c-11.88,6.49-25.28,9.48-38.57,11.35c-3.61,0.36-5.71,3.66-8.28,5.81
		c-29.05,27.17-47.11,63.7-75.87,91.14c-5.57,5.83-12.15,10.56-17.85,16.22c-10.21,6.85-20.11,14.22-30.99,20.01
		c-9.86,5.29-19.76,10.69-30.27,14.55c0.86-1.46,2.29-2.39,3.75-3.19c13.14-7.4,25.33-16.39,36.76-26.21
		c28.18-24.34,50.59-54.31,73.48-83.45c9.15-11.98,19.04-23.43,30.07-33.74c-12.29-0.09-24.57-1.21-36.64-3.51
		c-6.72-1.12-13.18-3.48-19.9-4.43c-3.11,2.98-5.59,6.53-8.34,9.83c-24.21,30.29-44.43,63.66-70.38,92.57
		c-20.51,23.15-45.64,42.25-73.74,55.24c-19.16,8.78-39.94,13.74-60.93,15.22c-0.54,3.63,0.22,7.3,0.45,10.94
		c0.54,4.96,0.67,9.98,1.65,14.88c1,13.63,3.29,27.13,4.41,40.76c0.34,2.06,0.14,4.61,1.99,6.04c8.66,7.64,17.44,15.16,26.25,22.64
		c1.3,1.01,3.06,2.75,4.67,1.16c22.44-14.65,46.08-27.39,70.25-38.93c36.55-17.72,75.59-32,116.44-34.6
		c7.38-0.97,14.84-0.15,22.22-1.04c0.67,0.1,2.02,0.3,2.69,0.4c31.2-0.59,60.83,12.77,92.07,11.67c12.96-0.24,25.34-4.77,37.12-9.82
		c6.14-2.93,12.56-5.49,18.18-9.39c4.27-1.58,8-4.32,11.97-6.51c6.51-4.19,13.7-7.36,19.79-12.18c-8.35,1.39-16.63,3.42-25.16,3.35
		c-23.93,1.44-47.45-4.22-71.15-6.18c-2.78-0.99-5.76-1.1-8.63-1.53c-13.62-1.95-27.19-4.77-40.05-9.73
		c-5.17-2.28-10.84-4-15.07-7.88c4.67,0.95,8.91,3.28,13.55,4.4c22.23,6.35,45.57,5,68.4,6.48c11.34,0.48,22.65,1.73,34.02,1.44
		c23.26,0.64,46.64-5.19,67.02-16.38c5.3-3.17,10.97-6.05,15.31-10.54c1.51-0.14,2.51-1.61,3.7-2.44
		c3.79-3.63,8.21-6.75,11.07-11.24c-1.27,0.15-2.51,0.35-3.71,0.62c-23.91,6.21-48.74,8.4-73.39,7.95
		c-12.8,0.4-25.48-1.88-38.22-2.34c-1.8-0.68-3.7-1.03-5.55-1.37c-21.81-3.4-43.23-9.21-63.85-17.07c-2.57-0.98-5.29-1.76-7.43-3.54
		c10.6,2.54,20.92,6.26,31.64,8.39c32.55,7.4,66.2,9.78,99.48,7.4c22.77-1.66,45.53-5.76,66.92-13.87
		c14.05-5.66,28.14-12.3,39.44-22.53l0.59,0.01c12.07-9.64,22.44-21.43,30.77-34.44c-4.16,1.66-8.09,3.81-12.21,5.53
		c-13.86,5.81-28.52,9.52-43.34,11.84c-26.16,4.46-52.7,6.93-79.24,6.62c-13.1,0.25-26.15-1.18-39.2-1.87
		c-2.8-0.93-5.79-1.02-8.66-1.42c-22.45-3.03-44.59-8.65-65.58-17.19c-2.32-1.02-4.99-1.6-6.69-3.59
		c6.68,1.21,12.88,4.26,19.53,5.69c36.01,9.78,73.7,8.61,110.63,7.09c23.85-0.99,47.73-2.96,71.18-7.59
		c19.53-4.26,39.19-9.89,56.21-20.69c13.46-8.18,24.29-20.07,32.8-33.21c3.49-5.59,7.26-11.12,9.68-17.29
		c1.27-0.77,1.58-2.41,2.32-3.62c2.48-5.76,5.45-11.31,7.63-17.19C1833.604,599.253,1815.154,598.513,1796.884,600.723
		 M1119.044,793.103c-0.09,12.1,2.66,24.01,3.44,36.07c2.48,20.55,3.14,41.49-0.52,61.94c-1.74,8.6-4.41,17.23-9.49,24.48
		c-6.95,9.75-18.68,15.17-30.32,16.65c-18.71,2.29-37.08-4.7-52.85-14.22c-26.29-16.09-47.33-39.84-62.7-66.37
		c-5.42-8.64-8.88-18.27-13.7-27.23c-38.01,12.42-76.5,23.37-114.71,35.2c2.84,2.59,6.61,3.72,9.87,5.66
		c29.74,16.24,54.51,40.77,72.8,69.15c20.73,32.39,33.79,70.17,34.95,108.75c1.03,28.87-4.48,58.51-19.07,83.7
		c-9.04,15.51-22.69,29.18-40.07,34.83c-7.33,2.59-15.11,3.12-22.81,3.52c-10.86-0.86-21.87-2.86-31.47-8.27
		c-5.44-2.66-9.72-6.96-14.34-10.74c4.13,15.68,10.12,30.83,16.15,45.87c8.12,19.13,17.45,37.82,28.73,55.3
		c9.36,14.68,20.17,28.37,31.36,41.69c0.77,0.7,1.43,1.8,2.59,1.95c3.67-4.4,6.59-9.38,10.33-13.74
		c4.06-5.45,8.77-10.38,12.81-15.82c21.44-24.32,50.26-40.4,72.97-63.36c10.15-10.63,19.99-22.91,22.37-37.84
		c2.5-12.95-0.05-26.13-2.43-38.89c-3.33-17.16-7.15-35.01-2.98-52.38c4.56-16.83,13.81-32.46,26.84-44.11
		c13.38-12.25,30.89-18.89,48.41-22.59c10.83-2.37,22-2.07,32.97-0.9c9.21,0.1,18.95,1.32,27.63-2.53
		c6.23-2.61,11.12-7.54,15.07-12.89c8.08-10.89,12.36-24.31,21.84-34.21c4.14-4.6,9.64-7.96,15.73-9.21
		c8.36-2.22,17.39,0.18,24.46,4.91c8.29,5.53,14.67,13.29,21.97,19.97c5.08,4.72,10.4,9.7,17.18,11.81c5.56,3,12.59,2.47,18.47,0.44
		c10.43-3.61,20.18-8.97,29.61-14.66c-2.92-3.39-6.79-5.77-10.07-8.76c-28.81-23.64-57-48.28-82.41-75.55
		c-2.15-8.62-2.05-17.69-2.57-26.53c-0.78-12.59,0.11-25.18,0.49-37.76c0.14-5.54,1.53-11.01,1.04-16.57c0-0.51,0.02-1.54,0.02-2.06
		c-21.75-2.29-43.66-3.11-65.52-3.9C1147.084,793.963,1133.064,792.893,1119.044,793.103 M1236.054,798.653
		c-0.03,0.64-0.1,1.91-0.13,2.55c3.18-0.04,6.68,0.01,9.47-1.77C1242.294,798.973,1239.174,798.663,1236.054,798.653
		 M1198.454,959.573c-11.65,12.77-17.35,30.02-30.2,41.79c-7.12,6.76-17.45,7.5-26.72,8.34c-18.71,1.65-37.94-1.67-56.23,3.71
		c-14.76,4.45-28.11,13.14-38.73,24.25c-13.46,14.35-21.78,33.75-21.48,53.54c-0.26,10.29,2.73,20.23,4.76,30.23
		c2.73,12.37,4.62,25.12,3.25,37.81c-1.45,12.71-7.69,24.37-15.81,34.08c-12.45,14.95-27.76,27.15-43.08,39.02
		c-13.68,10.92-27.94,21.46-39.39,34.79c-5,4.62-9.05,10.15-13.47,15.32c-3.36,4.61-7.62,8.65-10.27,13.74
		c1.22,2.88,3.85,4.83,5.86,7.16c19.59,21.47,41.15,41.12,64.16,58.88c5.57,4.07,10.73,8.92,16.96,11.97
		c1.12-6.31,1.46-12.74,3.13-18.95c1.85-8.85,5.33-17.23,8.05-25.8c2.59-4.32,4.09-9.18,6.53-13.59
		c10.84-22.31,26.52-41.74,42.55-60.49c22.64-26.29,48.03-50.12,74.96-71.98c28.65-23.23,59.2-44.02,90.39-63.68
		c34.69-21.63,70.86-41.16,109.06-55.86c7.78-3.24,15.96-5.39,23.73-8.62c15.1-4.02,30.18-8.43,45.65-11
		c8.3-1.69,16.78-2.35,25.07-4.09c-3.02-2.91-7.23-4.1-10.71-6.33c-26.42-14.69-50.89-32.61-74.46-51.45
		c-4.05-2.92-7.52-6.69-11.88-9.11c-8.63,4.49-17.11,9.39-26.3,12.68c-6.69,2.78-13.85,3.92-20.87,5.48
		c-3.51-0.15-7.08,0.26-10.51-0.67c-7.86-1.99-14.39-7.24-19.95-12.94c-6.86-6.8-12.71-14.67-20.52-20.47
		c-5.37-4.07-12.1-6.83-18.92-6.18C1207.224,951.723,1202.344,955.443,1198.454,959.573 M1855.414,970.513
		c-6.63,3.77-11.69,9.66-16.77,15.22c-15,18.96-29.7,38.31-41.6,59.43c-10.41,18.22-19.37,37.22-29.4,55.66
		c-2.42,4.84-5.71,9.24-7.71,14.29c5.95,2.27,12.11,4.2,17.41,7.88c2.16,1.64,5.51,2.9,5.62,6.07c-3.27,0.75-6.62,0.29-9.9,0.07
		c-42.56-2.77-84.81-8.78-127.06-14.35c-6.27-0.93-12.57-1.54-18.84-2.41c-3.17-0.34-6.34-1.09-9.52-0.71
		c-5.2,7.29-9.69,15.09-14.28,22.78c-3.06,5.77-6.77,11.23-9.09,17.36c24.73-2.13,49.95-1.18,74.04,5.15
		c20.65,5.97,39.9,15.73,60.08,23c16.91,6.12,35.1,10.67,53.17,7.81c13.72-1.94,25.98-8.81,38.11-15.06
		c29.1-15.81,55.9-36.14,87.15-47.78c18.34-7.24,38.56-8.32,56.56-16.55c2.08-1.18,4.88-2.48,5.43-5c-2.4-3.3-6.94-3.76-10.42-5.39
		c-7.81-2.63-14.74-7.1-21.27-11.99c-2.12-3.52-4.97-6.64-6.22-10.62c-3.96-10.76-1.88-22.7,2.41-33.03
		c2.39-6.39,6.26-12.95,4.81-20.01c-0.83-4.24-5.11-6.52-9.03-7.11c-8.67-1.37-17.27,1.19-25.89,1.72
		c-9.51,0.69-19.71,1.01-28.4-3.48c-7-3.62-10.62-11.57-10.68-19.2c-0.55-7.57,1.75-15.56-1.19-22.81
		C1861.634,968.253,1857.744,969.083,1855.414,970.513 M1377.774,1066.723c-28.4,7.56-55.69,19.05-82.05,32.01
		c-6.29,3.2-12.75,6.26-18.48,10.4c-6.6,1.76-12.01,6.24-18.11,9.16c-42.2,24.53-83.69,50.59-122.17,80.69
		c-29.53,23.19-57.35,48.82-80.8,78.23c-21.03,26.86-39.83,56.64-47.69,90.22c-0.7,4.4-2.39,9.02-1.24,13.45
		c2.63,2.3,5.52,4.41,8.71,5.89c6.61-4.83,12.23-10.91,17.98-16.7c13.83-14.33,25.18-30.81,35.58-47.72c3.47,0.2,6.08,3.05,9.41,3.9
		c4.98,3.11,10.68,4.81,16.04,7.16c3.78,1.72,8.06,2.38,11.54,4.76c-4.68,16.94-13.62,32.33-22.78,47.18
		c-8.72,12.86-18.05,25.3-27.39,37.69c14.67,9.61,29.85,18.52,44.03,28.89c10.07,7.5,19.63,16.41,25.06,27.94
		c5.87,11.79,7.26,25.1,11.58,37.44c2.11,6.61,4.98,13.16,9.77,18.3c7.12,7.82,17.22,12.18,27.39,14.43
		c18.73,4.2,38.11,3.89,57.16,2.64c14.33-0.84,28.67-1.77,42.94-3.2c19.95-1.48,39.87-3.7,59.65-6.7
		c19.46-3.47,38.65-8.59,57.09-15.72c6.58-2.66,13.46-4.74,19.67-8.21c-1.75-12.9-2.72-25.91-4.08-38.86
		c-1.76-18.7-5.33-37.18-9.74-55.43c-5.34-22.31-11.94-44.35-20.54-65.64c-7.42-17.91-14.9-35.84-23.74-53.11
		c-7.12-13.45-14.72-26.88-24.6-38.49c-2.47,0.93-4.66,2.45-6.92,3.77c-6.89,4.1-14.3,7.18-21.56,10.56
		c-2.02,0.85-4.1,1.89-6.35,1.69c-0.18-1.48,0.61-2.6,1.7-3.45c22.07-19.53,43.64-39.65,63.7-61.24
		c22.69-24.68,43.33-51.64,58.11-81.86c0.52-1.14,1.29-2.13,2.37-2.78c-1.86,7.85-5.56,15.11-8.41,22.62
		c-8.36,19.98-18.35,39.39-31.19,56.87c-10.62,13.9-22.26,27.01-34.72,39.28c-2.38,2.46-5.37,4.36-7.26,7.26
		c2.99,3.93,6.69,7.24,9.81,11.08c2.17,2.42,3.83,5.31,6.32,7.45c7.07,1.59,14.23,2.84,21.21,4.87c19.89,5.07,38.38,14.53,55.5,25.7
		c17.08,11.03,33.03,23.72,50.02,34.9c12.49,8.14,25.29,16.3,39.49,21.11c-3.95-12.16-5.77-25.09-4.35-37.83
		c3.75-35.64,16.76-69.36,29.19-102.69c6.79-18.31,14.41-36.32,22.98-53.87c8.81-18.37,19.14-35.96,29.3-53.6
		c2.78-3.4,4.67-7.41,7.24-10.96c5.62-8.57,12.43-16.49,20.98-22.25c-4.12-3.37-9.71-4.33-14.6-6.2c-26.03-8.4-53.73-5.48-80.46-9.4
		c-21.9-2.83-43.44-8.03-64.53-14.56c-5.63-1.93-11.59-0.41-17.34-0.09C1424.514,1056.713,1400.734,1060.033,1377.774,1066.723
		 M1625.114,1102.073c8.32,0.74,16.7,1.27,25.07,1.14c-2.38-3.82-5.51-7.38-9.46-9.58
		C1634.544,1093.193,1628.824,1097.453,1625.114,1102.073 M1588.084,1168.103c-2.78-0.39-3.64,2.78-4.13,4.88
		c-2.5,3.21-3.45,7.26-5.25,10.85c-10.39,23.01-18.39,46.99-27.26,70.6c-9.57,25.79-19.85,52-21.33,79.76
		c-0.5,12,1.29,24.72,8.49,34.67c6.95,1.5,14.31-0.37,20.56-3.55c8.3-3.85,14.97-10.28,21.31-16.72c3.29-3.57,7.01-6.9,9.38-11.17
		c6.04-7.01,10.68-15.1,15.62-22.89c19.84-32.42,34.67-67.84,44.31-104.59c3.32-13.01,7.35-25.94,9.08-39.26
		c-4.09-0.87-8.25-1.31-12.36-1.96C1627.154,1165.743,1607.534,1167.323,1588.084,1168.103 M1074.294,1330.623
		c-6.67,10.32-13.67,20.46-21.68,29.81c-6.42,6.97-12.81,14.01-20.1,20.11c-4.71,4.48-10.33,7.9-15.03,12.34
		c6.34,6.68,13.51,12.56,20.93,18.02c4.54,3.05,8.66,6.87,13.66,9.17c3.37-2.63,5.43-6.56,8.08-9.85
		c6.47-9.29,12.72-18.81,17.82-28.91c2.97-4.62,5.42-9.55,7.98-14.39c4.1-8.4,8.66-16.64,11.78-25.46
		C1089.574,1338.613,1082.034,1334.373,1074.294,1330.623 M1022.294,1493.363c-14.75,2.66-26.57,13.16-34.94,25.09
		c-13.52,17.49-27.19,34.87-40.15,52.79c-21.25,29.7-41.18,61.23-51.44,96.59c-2.03,7.97-4.77,16.02-4.34,24.36
		c0.05,3.41,2.32,7.03,5.86,7.65c3.92,0.35,7.99-0.29,11.58-1.94c9.98-2.43,19.78-6.36,30.2-6.44c11.46-0.7,23.16,4.55,30.22,13.63
		c6.65,8.1,10.67,17.9,16.28,26.69c2.53,3.94,5.3,8.41,10.07,9.86c6.51,2.15,13.21-0.94,18.84-4.08
		c14.32-8.42,26.15-20.31,39.78-29.7c8.25-4.14,17.58-6.87,26.88-5.75c4.46,0.44,8.51,2.5,12.71,3.93
		c-1.03-5.57-2.51-11.05-4.03-16.49c-10.85-37.03-33.51-68.84-49.37-103.68c-0.95-2.22-1.98-4.63-4.37-5.57
		c-9.51-4.7-18.53-10.37-28.15-14.8c-4.52-3.88-11.06-4.97-15.01-9.43c10.6,2.39,20.64,6.78,30.83,10.5
		c35.82,13.81,71.02,30.5,109.15,36.97c12.34,1.94,25.1,3.67,37.5,1.35c20.05-2.06,38.52-12.68,52.44-26.96
		c2.43-2.73,5.67-4.92,7.13-8.37c-15.67,0.51-31.45,1.02-47.04-0.97c-16.4-2.02-33.85-6.25-45.95-18.25
		c-5.18-4.84-8.03-11.41-11.77-17.27c-0.82-3.84-2.28-7.53-3.91-11.07c-3.7-1.86-7.8-2.74-11.59-4.37
		c-12.62-4.76-24.67-10.85-37.18-15.87C1056.694,1495.503,1039.444,1490.113,1022.294,1493.363z"/>
	<path fill="#F9F6B3" stroke="#F9F6B3" d="M1397.924,55.023c16.79-10.67,36.22-17.65,56.22-18.21c19.5-0.64,39.01,5.34,55.21,16.13
		c12.1,8.27,20.77,20.96,25.18,34.86c6.84,21.34,6.2,44.23,3.39,66.21c-0.15,0.34-0.46,1.03-0.61,1.38
		c-3.92-17.51-11.29-34.22-21.46-48.99c-8.49-11.99-18.99-22.79-31.78-30.17c-15.02-9.05-33.29-12.56-50.58-9.53
		c-17.85,3.16-34.71,10.98-49.35,21.57c-25.85,18.82-45.24,44.84-62.59,71.34c-15.11,23.67-29.58,47.75-44.32,71.66
		c-2.66,4.09-4.48,8.85-8.29,12.08c2.31-6.97,6.55-13.1,9.6-19.76c17.78-35.29,34.83-71.15,57.05-103.95
		C1352.664,94.983,1372.464,71.383,1397.924,55.023z"/>
	<path fill="#E0EBAD" stroke="#E0EBAD" d="M1513.094,45.533c1.1-1.37,3.63,0.59,2.63,2.03
		C1514.594,47.233,1513.694,46.493,1513.094,45.533z"/>
	<path fill="#F9EE09" stroke="#F9EE09" d="M1433.494,66.703c17.29-3.03,35.56,0.48,50.58,9.53c12.79,7.38,23.29,18.18,31.78,30.17
		c10.17,14.77,17.54,31.48,21.46,48.99c-0.07,6.73-1.95,13.28-3.08,19.89c-8.24,41.74-22.55,82.02-38.89,121.21
		c-12.65,30.19-26.63,59.8-40.75,89.32c-3.85-0.02-7.59-1.09-11.4-1.41c-5.32-0.68-10.67-0.43-16-0.55
		c3.48-6.78,8.34-12.76,12.29-19.27c22.72-35.26,43.25-72.52,54.97-113c5.48-18.23,8.69-37.08,10.12-56.04
		c0.88-18.12,0.82-36.67-4.67-54.13c-3.26-10.3-8.21-20.36-15.93-28.06c-6.65-6.66-15.66-10.52-24.88-11.91
		c-19.46-2.55-39.06,3.42-56.05,12.65c-26.87,14.8-47.4,38.54-64.56,63.51c-20.86,30.09-37.33,62.92-57.61,93.38
		c-21.06,31.24-44.38,61.23-72.03,86.95c-24.33,22.65-52.34,41.89-83.72,53.3c-8.82,3.41-18.04,5.58-27.22,7.76
		c-4.15,0.99-8.47,1.19-12.7,0.82c0.13-1.55,1.33-2.36,2.73-2.73c32.66-11.29,62.44-29.98,88.39-52.65
		c37.17-32.45,66.85-72.85,89.51-116.55c0.81-1.64,1.71-3.29,3.11-4.53c3.81-3.23,5.63-7.99,8.29-12.08
		c14.74-23.91,29.21-47.99,44.32-71.66c17.35-26.5,36.74-52.52,62.59-71.34C1398.784,77.683,1415.644,69.863,1433.494,66.703z"/>
	<path fill="#B39C86" stroke="#B39C86" d="M1119.764,82.813c4.96-1.06,10.1-0.63,15.15-0.56l0.32,0.82
		C1130.074,83.363,1124.904,83.333,1119.764,82.813z"/>
	<path fill="#FBFDFF" stroke="#FBFDFF" d="M1039.204,111.233c24.45-8.34,50.06-13.28,75.84-14.81c23.31-1.58,46.86,0.1,69.65,5.27
		c38.03,8.73,73.73,26.05,105.6,48.38c4.55,3.34,9.4,6.36,13.55,10.23c-3.19,6.92-6.9,13.61-10.26,20.45
		c-6.96,13.01-12.58,26.75-20.14,39.42c0.43-8.03,0.16-16.37-3.59-23.68c-5.06-10.08-13.72-18.85-24.58-22.44
		c-14.14-4.83-30.06-2.59-43.2,4.12c-17.27,9.26-28.09,28.62-28.41,48.03c-0.16,10.14,4.66,19.71,11.39,27.06
		c7,7.25,15.46,13.34,24.95,16.87c-4.39-4.55-9.62-8.23-13.72-13.07c-8.09-8.52-13.85-19.88-13.26-31.86
		c-0.12-19.42,14.58-36.55,32.47-42.65c16.13-5.32,34.81,0.8,45.33,13.98c7.66,9.37,9.27,22.35,7.46,33.95
		c-16.43,31.08-35.59,60.81-57.9,88.02c-33.32,40.67-74.98,75.75-124.16,95.43c0.86-13.86-0.59-27.7-2.59-41.4
		c-0.3-0.02-0.91-0.05-1.21-0.07c-0.2,5.27,0.88,10.49,0.67,15.77c-0.65,21.45-6.41,42.94-17.72,61.28
		c-5.34,8.97-12.49,16.63-20.11,23.68c5.74-1.44,10.46-5.31,15.22-8.64c6.42-4.97,11.77-11.19,16-18.11
		c3.78-0.32,7.51,0.69,11.23,1.25c4.08,0.82,8.29,1.2,12.21,2.69c31.07,15.14,60.56,33.34,88.76,53.27
		c30.96,21.22,61.15,43.72,88.69,69.29c2.06,1.98,4.02,4.07,6.05,6.1c-20.57,7.39-41.35,14.32-61.45,22.98
		c-45.06,18.91-87.65,44.99-121.9,80.13c-2.41,2.56-5.18,4.91-6.72,8.16c2.98-1.87,5.25-4.64,8.26-6.48
		c-2.47,5.64-6.11,10.67-8.6,16.3c-4.3,9.03-7.85,18.46-9.67,28.32c-2.84,14.07-2.24,28.5-2.07,42.77
		c1.02,22.99,2.55,45.96,2.18,68.98c-0.21,14.82-0.37,30.2-6.2,44.09c-1.89,4.14-3.86,8.76-8.04,11.08
		c-6.29,3.59-13.8,4.19-20.87,3.48c-13.18-1.35-25.66-6.4-37.15-12.8c-16.49-14.13-28.95-32.36-40.01-50.9
		c-0.59-1.37-2.04-2.76-1.36-4.33c9.17-20.74,16.99-42.11,22.92-64.01c7.83-30.19,14.39-60.68,20.8-91.19
		c1.4-5.56,1.61-11.42,3.57-16.81c14.84,11.01,29.53,22.29,44.98,32.48c0.94,0.6,1.99,0.98,3.13,1.14c-0.98-2.62-3.5-4.09-5.43-5.92
		c-32.82-29.21-63.13-61.35-89.33-96.66c-2.44-3.52-5.34-6.78-7.11-10.71c-3.92-10.8-8.7-21.3-11.74-32.41
		c-9.69-36.86-17.83-74.28-21.51-112.27c11.17-10.22,21.66-21.19,31.89-32.36c0.69-0.85,1.13-1.82,1.33-2.91
		c-3.89,1.6-7.08,4.41-10.57,6.68c-20.17,13.72-41.27,26.62-64.53,34.35c-10.42,3.35-21.2,5.86-32.17,6.28
		c-10.93,0.39-22.17,0.13-32.53-3.75c-16.08-5.47-29.26-17.4-38.62-31.34c-4.92-7.62-9.53-15.67-12.04-24.42
		c3.95,2.04,7.18,5.2,11.02,7.44c10.01,6.07,21.39,10.68,33.25,10.75c11.58,0,22.47-5.42,31.04-12.91
		c13.04-11.46,21.56-27.28,26.24-43.85c4.59-16.7,6.33-34.04,7-51.3c0.84-15.35,2.11-30.9,6.99-45.58
		c5.69-18,15.6-34.29,26.44-49.61C944.984,159.193,989.754,127.663,1039.204,111.233 M1147.644,129.753
		c-7.03,9.84-9,22.4-8.19,34.24c0.28-0.05,0.83-0.17,1.11-0.23c0.53-2.19,0.83-4.45,1.54-6.6c6.26-6.39,11.97-13.44,19.27-18.72
		c5.64-4.44,12.29-7.29,18.89-9.99c2.13-0.93,4.49-1.69,5.99-3.59c5.85-0.29,10.79,2.97,15.88,5.29c-1.97-4.42-6.65-6.83-10.42-9.55
		C1177.644,111.373,1157.054,116.043,1147.644,129.753 M1017.514,172.603c-10.15,3.91-18.33,11.69-24.62,20.39
		c-9.81,13.79-15.75,29.96-19.31,46.4c-1.98,10.48-3.49,21.12-3.27,31.81c0.86-1.08,0.78-2.54,1.02-3.82
		c0.87-7.52,2.21-15,4.51-22.22c1.14-1.32,2.17-2.74,3.05-4.25c6.1-10.77,13.49-20.9,22.45-29.48c3.74-3.61,7.09-7.78,11.74-10.3
		c7.68-4.57,16.24-7.48,25.04-8.99c6.33-1.34,12.83-0.77,19.25-1.15c2.25,1.01,4.41,2.22,6.72,3.1c-0.58-2.94-2.78-5.08-4.53-7.36
		c-4.11-5.17-8.73-10.27-14.86-13.02C1036.214,170.033,1026.234,169.193,1017.514,172.603 M1222.444,201.633
		c-7.68,1.66-14.48,7.04-17.83,14.16c-4.42,9.02-2.91,20.61,3.72,28.18c4.94,5.57,12.26,9.16,19.77,9.02
		c7.27,0.12,14.43-3.2,19.25-8.59c6.26-6.78,8.25-17.06,5.37-25.78C1248.794,206.403,1234.974,198.543,1222.444,201.633
		 M1066.754,224.853c-11.95,1.95-23.6,6.41-33.39,13.6c-13.76,10.23-22.88,26-26.1,42.73c-2.2,12.41-2.25,25.84,3.58,37.32
		c6.47,12.72,18.33,21.82,31,27.86c6.23,2.79,12.6,5.55,19.37,6.77l-0.25-0.79c4.52,1.62,9.45,0.59,14.15,0.9
		c11.04,0.5,21.49-4.44,30.22-10.81c5.87-3.43,9.45-9.37,13.2-14.81c4.22-6.82,7.77-14.22,9.2-22.16c1.47-1.3,1.3-3.46,1.71-5.22
		c2.11-14.08,2.54-29.02-2.94-42.44c-4.34-11.05-13.01-19.88-22.96-26.09C1092.764,224.743,1079.274,223.113,1066.754,224.853z"/>
	<path fill="#B96812" stroke="#B96812" d="M1423.074,114.993c11.96-3.5,24.82-6.09,37.15-2.87c12.2,3.26,21.37,13.54,26.08,24.92
		c4.89,12.06,7.13,25.16,6.93,38.16c0.58,24.42-5.18,48.47-12.57,71.58c-15.82,47.63-38.59,92.55-62.39,136.6
		c-0.65,1.61-2.53,1.7-3.96,2.05c-16.06,2.74-32.23,7.61-45.34,17.62c-2.66,1.95-4.95,4.39-7.79,6.09
		c-17.11-8.87-36.24-13.01-55.19-15.72c-7.6-1.22-15.32-1.2-22.98-1.83c-9.65-0.92-19.29,0.53-28.92,0.86
		c-18,1.66-36.1,4.38-53.1,10.7c-10.39,3.85-19.97,9.54-28.98,15.93c-5.4,3.94-11.14,7.42-16.15,11.87
		c-9.9-2.07-19.57-5.51-29.65-6.98c-3.28-0.89-7.2-0.48-10.02-2.46c37.18-9.6,70.46-30.92,98.33-56.94
		c6.1-5.31,11.55-11.31,17.35-16.94c7.77,1.72,15.77,2.18,23.47,4.26c20.09,4.6,38.36,15.39,58.98,17.98
		c9.14,0.9,18.6,0.91,27.4-2.04c34.82-10.94,65.61-33.32,88.16-61.86c11.75-14.61,20.4-31.48,27.01-48.96
		c5.62-15.76,9.65-32.15,11.06-48.85c0.49-5.96,1.95-11.77,3.62-17.49c1.64-7.25-0.73-14.6-2.31-21.64
		c-5.22-18.27-14.57-36.32-30.36-47.57C1434.034,118.493,1428.884,115.443,1423.074,114.993z"/>
	<path fill="#F39905" stroke="#F39905" d="M1360.734,162.753c16.54-20.51,36.95-39.22,62.34-47.76c5.81,0.45,10.96,3.5,15.83,6.47
		c15.79,11.25,25.14,29.3,30.36,47.57c1.58,7.04,3.95,14.39,2.31,21.64c-1.67,5.72-3.13,11.53-3.62,17.49
		c-1.41,16.7-5.44,33.09-11.06,48.85c-6.61,17.48-15.26,34.35-27.01,48.96c-22.55,28.54-53.34,50.92-88.16,61.86
		c-8.8,2.95-18.26,2.94-27.4,2.04c-20.62-2.59-38.89-13.38-58.98-17.98c-7.7-2.08-15.7-2.54-23.47-4.26
		c10.44-11.83,20.74-23.84,30-36.64C1297.184,263.153,1323.974,209.573,1360.734,162.753z"/>
	<path fill="#693A0C" stroke="#693A0C" d="M1147.644,129.753c9.41-13.71,30-18.38,44.07-9.15c3.77,2.72,8.45,5.13,10.42,9.55
		c-5.09-2.32-10.03-5.58-15.88-5.29c-8.7-0.78-17.27,2.28-24.37,7.13c-8.93,6.1-16.41,14.78-19.78,25.17
		c-0.71,2.15-1.01,4.41-1.54,6.6c-0.28,0.06-0.83,0.18-1.11,0.23C1138.644,152.153,1140.614,139.593,1147.644,129.753z"/>
	<path fill="#BCCDD2" stroke="#BCCDD2" d="M1161.884,131.993c7.1-4.85,15.67-7.91,24.37-7.13c-1.5,1.9-3.86,2.66-5.99,3.59
		c-6.6,2.7-13.25,5.55-18.89,9.99c-7.3,5.28-13.01,12.33-19.27,18.72C1145.474,146.773,1152.954,138.093,1161.884,131.993z"/>
	<path fill="#FBD39C" stroke="#FBD39C" d="M1552.524,140.493c-0.24-4.53-0.22-9.06,0.03-13.58
		C1553.034,131.423,1553.074,135.983,1552.524,140.493z"/>
	<path fill="#FBFDFF" stroke="#FBFDFF" d="M1306.754,150.353c0.69-1.41,1.5-1.43,2.45-0.05
		C1308.444,151.183,1307.624,151.203,1306.754,150.353z"/>
	<path fill="#693A0C" stroke="#693A0C" d="M1017.514,172.603c8.72-3.41,18.7-2.57,27.19,1.11c6.13,2.75,10.75,7.85,14.86,13.02
		c1.75,2.28,3.95,4.42,4.53,7.36c-2.31-0.88-4.47-2.09-6.72-3.1c-6.36-2.85-13.34-4.01-20.25-4.43c-6.24-0.27-12.71-0.24-18.59,2.1
		c-10.72,4.28-20.07,11.83-26.61,21.33c-7.41,10.63-12.84,22.63-16.08,35.17c-2.3,7.22-3.64,14.7-4.51,22.22
		c-0.24,1.28-0.16,2.74-1.02,3.82c-0.22-10.69,1.29-21.33,3.27-31.81c3.56-16.44,9.5-32.61,19.31-46.4
		C999.184,184.293,1007.364,176.513,1017.514,172.603z"/>
	<path fill="#BCCDD2" stroke="#BCCDD2" d="M1018.534,188.663c5.88-2.34,12.35-2.37,18.59-2.1c6.91,0.42,13.89,1.58,20.25,4.43
		c-6.42,0.38-12.92-0.19-19.25,1.15c-8.8,1.51-17.36,4.42-25.04,8.99c-4.65,2.52-8,6.69-11.74,10.3
		c-8.96,8.58-16.35,18.71-22.45,29.48c-0.88,1.51-1.91,2.93-3.05,4.25c3.24-12.54,8.67-24.54,16.08-35.17
		C998.464,200.493,1007.814,192.943,1018.534,188.663z"/>
	<path fill="#33702D" stroke="#33702D" d="M1222.444,201.633c12.53-3.09,26.35,4.77,30.28,16.99c2.88,8.72,0.89,19-5.37,25.78
		c-4.82,5.39-11.98,8.71-19.25,8.59c-7.51,0.14-14.83-3.45-19.77-9.02c-6.63-7.57-8.14-19.16-3.72-28.18
		C1207.964,208.673,1214.764,203.293,1222.444,201.633 M1212.204,208.303c-4.05,3.41-3.92,9.77-1.04,13.88l-0.65,0.31
		c-2.05,8.29,2.17,17.99,10.43,20.96c6.15,2.85,13.58,1.47,18.87-2.56c7.29-6.18,8.45-18.27,2.17-25.56
		c-3.78-4.01-9.26-6.75-14.87-6.06C1223.294,205.373,1216.284,204.183,1212.204,208.303z"/>
	<path fill="#FFFFFF" stroke="#FFFFFF" d="M1212.204,208.303c4.08-4.12,11.09-2.93,14.91,0.97c2.93,4.83,2.08,11.95-3.18,14.78
		c-4.15,2.62-9.29,1.12-12.77-1.87C1208.284,218.073,1208.154,211.713,1212.204,208.303z"/>
	<path fill="#1B2612" stroke="#1B2612" d="M1227.114,209.273c5.61-0.69,11.09,2.05,14.87,6.06c6.28,7.29,5.12,19.38-2.17,25.56
		c-5.29,4.03-12.72,5.41-18.87,2.56c-8.26-2.97-12.48-12.67-10.43-20.96l0.65-0.31c3.48,2.99,8.62,4.49,12.77,1.87
		C1229.194,221.223,1230.044,214.103,1227.114,209.273z"/>
	<path fill="#693A0C" stroke="#693A0C" d="M1066.754,224.853c12.52-1.74,26.01-0.11,36.79,6.86c9.95,6.21,18.62,15.04,22.96,26.09
		c5.48,13.42,5.05,28.36,2.94,42.44c-0.41,1.76-0.24,3.92-1.71,5.22c-0.59-13.34-1.08-27.07-6.35-39.55
		c-9.03-21.37-34.33-32.96-56.67-29.02c-18.07,3.19-33.19,16.53-41.36,32.59c-10.09,19.73-6.81,45.73,8.85,61.65
		c8.23,8.72,18.49,15.18,28.76,21.21l0.25,0.79c-6.77-1.22-13.14-3.98-19.37-6.77c-12.67-6.04-24.53-15.14-31-27.86
		c-5.83-11.48-5.78-24.91-3.58-37.32c3.22-16.73,12.34-32.5,26.1-42.73C1043.154,231.263,1054.804,226.803,1066.754,224.853z"/>
	<path fill="#FFFFFF" stroke="#FFFFFF" d="M1064.714,236.893c22.34-3.94,47.64,7.65,56.67,29.02c5.27,12.48,5.76,26.21,6.35,39.55
		c-1.43,7.94-4.98,15.34-9.2,22.16c-3.75,5.44-7.33,11.38-13.2,14.81c-8.73,6.37-19.18,11.31-30.22,10.81
		c-4.7-0.31-9.63,0.72-14.15-0.9c-10.27-6.03-20.53-12.49-28.76-21.21c-15.66-15.92-18.94-41.92-8.85-61.65
		C1031.524,253.423,1046.644,240.083,1064.714,236.893 M1067.454,261.623c-14.32,2.44-26.2,15.12-27.57,29.6
		c-2.01,14.02,5.85,28.55,18.5,34.78c8.79,4.44,19.5,4.84,28.6,1.09c9.81-3.9,17.41-12.74,20.14-22.89
		c2.16-8.82,1.09-18.53-3.61-26.37C1096.444,265.573,1081.314,258.783,1067.454,261.623z"/>
	<path fill="#33702D" stroke="#33702D" d="M1067.454,261.623c13.86-2.84,28.99,3.95,36.06,16.21c4.7,7.84,5.77,17.55,3.61,26.37
		c-2.73,10.15-10.33,18.99-20.14,22.89c-9.1,3.75-19.81,3.35-28.6-1.09c-12.65-6.23-20.51-20.76-18.5-34.78
		C1041.254,276.743,1053.134,264.063,1067.454,261.623 M1052.664,270.753c-5.07,4.69-5.18,13.25-0.63,18.33
		c-0.29,0.2-0.87,0.58-1.16,0.77c-3.71,12.93,6.3,27.17,19.4,29.04c5.13,0.6,10.51-0.19,15.11-2.61c6.98-4.14,12.45-11.7,12.1-20.09
		c0.55-6.56-2.37-12.89-6.7-17.66c-4.89-4.96-11.9-7.29-18.79-6.91C1067.124,266.243,1057.854,265.443,1052.664,270.753z"/>
	<path fill="#FFFFFF" stroke="#FFFFFF" d="M1052.664,270.753c5.19-5.31,14.46-4.51,19.33,0.87c3.18,4.7,4.08,11.26,0.54,16.04
		c-4.54,6.7-15.05,7.38-20.5,1.42C1047.484,284.003,1047.594,275.443,1052.664,270.753z"/>
	<path fill="#1B2612" stroke="#1B2612" d="M1071.994,271.623c6.89-0.38,13.9,1.95,18.79,6.91c4.33,4.77,7.25,11.1,6.7,17.66
		c0.35,8.39-5.12,15.95-12.1,20.09c-4.6,2.42-9.98,3.21-15.11,2.61c-13.1-1.87-23.11-16.11-19.4-29.04
		c0.29-0.19,0.87-0.57,1.16-0.77c5.45,5.96,15.96,5.28,20.5-1.42C1076.074,282.883,1075.174,276.323,1071.994,271.623z"/>
	<path opacity="0.63" fill="#5B4733" stroke="#5B4733" enable-background="new    " d="M763.234,373.883
		c-1.19-0.38-1.11-2.44,0.11-2.72c1.02-0.24,2.92,0.5,2.58,1.8C765.014,373.263,764.124,373.563,763.234,373.883z"/>
	<path fill="#CFC1B4" stroke="#CFC1B4" d="M1466.854,389.383c-1.48,0.05-1.75-0.49-0.83-1.62l0.82,0.61L1466.854,389.383z"/>
	<path fill="#964E11" stroke="#964E11" d="M1254.094,392.453c9.63-0.33,19.27-1.78,28.92-0.86c7.66,0.63,15.38,0.61,22.98,1.83
		c18.95,2.71,38.08,6.85,55.19,15.72c-3.79,4.54-8.07,8.7-12.38,12.73c-2.9,0-5.62-1.17-8.33-2
		c-32.68-11.02-67.9-16.07-102.14-10.37c-9.37,1.65-18.88,3.32-27.55,7.4c-11.63,5.22-21.34,13.81-30.05,22.94
		c-2.52,0.14-4.74-1.41-7.01-2.24c-5.77-2.72-12.16-3.8-17.86-6.65c5.01-4.45,10.75-7.93,16.15-11.87
		c9.01-6.39,18.59-12.08,28.98-15.93C1217.994,396.833,1236.094,394.113,1254.094,392.453z"/>
	<path fill="#F9EE09" stroke="#F9EE09" d="M1426.094,395.473c20.06-0.86,40.35,2.77,58.63,11.16c30.01,13.47,54.77,36.24,75.82,61.1
		c12.19,14.49,22.68,30.54,29.99,48.05c6.73,16.67,10.34,35.14,7.12,53.04c-2.48,15.81-10.66,30.7-22.84,41.11
		c-13.59,11.86-31.12,18.15-48.68,21.21c-21.65,3.58-43.91,2-65.26-2.69c-34.53-7.64-66.78-23.03-97.07-40.96
		c-34.75-20.55-67.15-44.73-100.23-67.8c-36.95-25.9-74.97-51.07-117.02-67.97c-21.09-8.22-43.72-11.53-66.22-12.51
		c1.57-4.84,3.06-9.71,4.25-14.66c3.79-1.16,7.94,0.12,11.84,0.38c38.81,4.96,75.88,19.19,110.04,37.92
		c36.23,19.7,69.79,43.8,103.21,67.83c26.59,19.14,53.33,38.32,82.4,53.58c18.16,9.41,37.21,17.43,57.26,21.76
		c22.74,5.06,46.98,5.28,69.18-2.36c13.58-4.15,26.4-11.48,35.87-22.19c13.75-15.29,20.26-36.53,18.31-56.92
		c-1.36-15.96-7.72-31.13-16.48-44.4c-9.46-14.53-21.47-27.23-34.49-38.6c-25.18-22.49-56.59-37.55-89.54-44.49
		C1430.104,396.673,1428.054,396.223,1426.094,395.473 M1582.134,520.083c-0.64,7.27-0.94,14.59-2.51,21.74
		c-2.62,11.6-7.27,22.9-14.62,32.32c-9.36,12.26-22.33,21.31-36.18,27.84c-16.01,7.47-33.17,12.22-50.46,15.63
		c0.07,0.3,0.2,0.9,0.27,1.21c19.42,6.92,41.41,7.55,60.61-0.49c17.02-7.1,32.83-19.01,41.4-35.67
		c9.49-17.72,11.69-39.56,4.57-58.49C1584.484,522.643,1583.954,520.593,1582.134,520.083z"/>
	<path fill="#FBD39C" stroke="#FBD39C" d="M1380.554,410.673c18.08-6.06,37.79-5.5,56.18-1.13c20.25,4.83,39.25,14.06,56.53,25.55
		c5.42,3.88,11.19,7.41,15.92,12.16c-10.44-4.15-20.73-8.77-31.64-11.56c-20.56-5.64-42.02-9.77-63.42-7.57
		c-13.41,0.5-26.56,4.03-39.97,4.21c-5.51-2.34-11.04-4.6-16.67-6.6c-0.56-1.82,1.73-2.4,2.78-3.4
		C1366.854,418.173,1372.964,412.923,1380.554,410.673z"/>
	<path fill="#FBD39C" stroke="#FBD39C" d="M1211.724,430.703c21.05-10.58,45.21-13.24,68.46-11.42
		c22.22,1.74,44.07,6.81,65.26,13.61c18.2,5.59,35.88,13.03,52.34,22.63c4.26,2.65,8.73,5.05,12.51,8.39
		c-5.12-0.92-9.53-3.78-14.29-5.68c-19.76-8.19-40.45-13.92-61.33-18.4c-28.16-5.74-56.61-12.36-85.56-10.72
		c-13.04,0.49-25.89,3.21-38.41,6.75c-4.22,1.32-8.46,2.56-12.79,3.4C1201.764,435.383,1207.034,433.373,1211.724,430.703z"/>
	<path fill="#F3AF49" stroke="#F3AF49" d="M1414.124,428.123c21.4-2.2,42.86,1.93,63.42,7.57c10.91,2.79,21.2,7.41,31.64,11.56
		c5.46,3.28,9.73,8.19,14.51,12.36c12.27,12.09,22.92,25.98,30.29,41.6c0.51,1.25,1.1,2.52,1.21,3.92
		c-0.96,7.45-1.64,15.02-4.02,22.19c-3.45,10.45-8.84,20.47-16.84,28.14c-12.78,11.79-30,17.77-47.14,19.05
		c-10.32,1.45-20.73,0.14-30.95-1.39c-19.33-2.81-37.15-11.31-54.78-19.28c-51.87-24.94-98.41-59.81-151.39-82.6
		c-8.19-3.46-16.44-6.85-25.09-8.96c-5.98-2.38-11.31-6.09-17.06-8.93c-5.75-3.11-11.68-5.83-17.59-8.6
		c1.73-2.66,4.55-4.6,7.58-5.49c4.33-0.84,8.57-2.08,12.79-3.4c12.52-3.54,25.37-6.26,38.41-6.75c28.95-1.64,57.4,4.98,85.56,10.72
		c20.88,4.48,41.57,10.21,61.33,18.4c4.76,1.9,9.17,4.76,14.29,5.68c2.12,0.61,3.64,2.36,5.41,3.62
		c17.19,13.04,31.17,29.67,44.74,46.3c3.78,4.09,6.52,9.16,11,12.59c-3.18-6.37-8.01-11.71-11.91-17.63
		c-11.93-16.8-24.47-33.36-39.73-47.31c-13.21-12.5-29.06-21.87-45.65-29.15C1387.564,432.153,1400.714,428.623,1414.124,428.123z"
		/>
	<path fill="#BCCDD2" stroke="#BCCDD2" d="M917.104,444.183c4.56-2.93,8.56-6.62,13-9.72c3.68,37.99,11.82,75.41,21.51,112.27
		c3.04,11.11,7.82,21.61,11.74,32.41c-4.62-4.94-7.79-11.02-11.64-16.54c-18.36-28.69-34.89-58.49-52.16-87.83
		c-3.07-5.79-7.16-11.13-9.33-17.33C899.674,454.113,908.874,449.963,917.104,444.183z"/>
	<path fill="#BCCDD2" stroke="#BCCDD2" d="M1099.924,450.383c17.42,2.96,34.23,8.92,50.62,15.43
		c36.1,15.12,69.05,36.63,101.17,58.76c18.1,12.52,35.94,25.4,54,37.98c3.38,2.47,7.07,4.54,10.25,7.31
		c-10.97,2.62-21.66,6.27-32.54,9.18c-2.03-2.03-3.99-4.12-6.05-6.1c-27.54-25.57-57.73-48.07-88.69-69.29
		C1160.484,483.723,1130.994,465.523,1099.924,450.383z"/>
	<path fill="#C6B5A4" stroke="#C6B5A4" d="M881.344,460.053c0.43-1.38,1.05-1.44,1.84-0.17
		C882.724,459.923,881.804,460.003,881.344,460.053z"/>
	<path fill="#E39328" stroke="#E39328" d="M1224.984,462.283c8.65,2.11,16.9,5.5,25.09,8.96c52.98,22.79,99.52,57.66,151.39,82.6
		c17.63,7.97,35.45,16.47,54.78,19.28c10.22,1.53,20.63,2.84,30.95,1.39c17.14-1.28,34.36-7.26,47.14-19.05
		c8-7.67,13.39-17.69,16.84-28.14c2.38-7.17,3.06-14.74,4.02-22.19c9.04,18.52,8.37,41.84-2.71,59.41
		c-7.9,13.49-21.28,23.16-35.94,28.15c-18.41,6.3-38.33,6.86-57.48,4.36c-34.31-4.44-66.16-19.51-95.37-37.42
		c-43.24-26.64-81.51-60.39-124.18-87.85C1234.774,468.453,1229.324,466.143,1224.984,462.283z"/>
	<path fill="#F9F6B3" stroke="#F9F6B3" d="M1582.134,520.083c1.82,0.51,2.35,2.56,3.08,4.09c7.12,18.93,4.92,40.77-4.57,58.49
		c-8.57,16.66-24.38,28.57-41.4,35.67c-19.2,8.04-41.19,7.41-60.61,0.49c-0.07-0.31-0.2-0.91-0.27-1.21
		c17.29-3.41,34.45-8.16,50.46-15.63c13.85-6.53,26.82-15.58,36.18-27.84c7.35-9.42,12-20.72,14.62-32.32
		C1581.194,534.673,1581.494,527.353,1582.134,520.083z"/>
	<path fill="#FBD39C" stroke="#FBD39C" d="M1808.754,556.853c5.07-0.83,10.23-0.24,15.36-0.41c5.43,0.14,10.9-0.35,16.32,0.37
		C1829.874,556.863,1819.304,557.123,1808.754,556.853z"/>
	<path fill="#FFFFFF" stroke="#FFFFFF" d="M1611.354,557.153c11.58,0.42,23.17,0.13,34.76,0.22c5.4,0.12,10.86-0.56,16.24,0.33
		c-16.96,0.26-33.92-0.09-50.86,0.19L1611.354,557.153z"/>
	<path fill="#977656" stroke="#977656" d="M1789.194,557.893c1.68-1.57,4.9-1.55,6.78-0.23
		C1793.744,558.323,1791.424,558.413,1789.194,557.893z"/>
	<path fill="#FFFFFF" stroke="#FFFFFF" d="M1676.894,558.493c4.47-0.11,9-0.55,13.45,0.21
		C1685.854,558.843,1681.364,558.933,1676.894,558.493z"/>
	<path fill="#9C7D5F" stroke="#9C7D5F" d="M1770.184,558.903c1.69-1.57,4.9-1.55,6.78-0.25
		C1774.734,559.313,1772.424,559.443,1770.184,558.903z"/>
	<path fill="#FFFFFF" stroke="#FFFFFF" d="M1713.854,559.473c12.16-0.35,24.35-0.42,36.52-0.01
		C1738.234,560.173,1725.994,560.123,1713.854,559.473z"/>
	<path fill="#FBFDFF" stroke="#FBFDFF" d="M1802.044,567.743c31.19-2.07,63.07-0.18,92.94,9.62c1.02,0.47,2.48,0.56,3.11,1.68
		c-6.74,3.45-14.17,5.2-21.56,6.57c-15.02,2.41-30.27,2.29-45.42,2.2c-22.33-0.37-44.55,2.17-66.78,3.88
		c-49.25,4.95-98.99,3.1-148.1,9.74c-6.39,0.67-12.69,1.96-19.06,2.73c3.22-6.48,6.99-12.73,9.21-19.66
		c1.91-4.79,2.53-9.94,3.97-14.86c25.4-1.63,50.88-0.42,76.31,0.07C1725.124,571.423,1763.634,569.973,1802.044,567.743z"/>
	<path fill="#AE957C" stroke="#AE957C" d="M1327.424,579.223c-0.7-1.81,3.04-1.81,2.48,0
		C1329.284,579.223,1328.044,579.223,1327.424,579.223z"/>
	<path fill="#BCCDD2" stroke="#BCCDD2" d="M1796.884,600.723c18.27-2.21,36.72-1.47,55.08-1.4c-2.18,5.88-5.15,11.43-7.63,17.19
		c-0.74,1.21-1.05,2.85-2.32,3.62c-11.92,1.06-23.9,0.97-35.83,1.74c-15.34,0.68-30.71-0.01-46.03,0.93
		c-47.27,0.52-94.8-1.68-141.79,4.75c-36.79,5.47-72.01,21.39-100.05,45.87c-12.92,10.75-23.58,23.81-34.81,36.22
		c-11.46,12.88-23.77,25.15-37.99,35c-7.01,4.72-13.9,9.67-21.33,13.7c5.7-5.66,12.28-10.39,17.85-16.22
		c28.76-27.44,46.82-63.97,75.87-91.14c2.57-2.15,4.67-5.45,8.28-5.81c13.29-1.87,26.69-4.86,38.57-11.35
		c6.67-3.71,12.98-8.16,18.47-13.49c1.38-1.36,2.9-2.74,4.93-3.02c42.41-8.59,85.75-10.99,128.9-12.74
		C1743.684,603.863,1770.294,602.383,1796.884,600.723z"/>
	<path fill="#FBFDFF" stroke="#FBFDFF" d="M1806.184,621.873c11.93-0.77,23.91-0.68,35.83-1.74c-2.42,6.17-6.19,11.7-9.68,17.29
		c-8.51,13.14-19.34,25.03-32.8,33.21c-17.02,10.8-36.68,16.43-56.21,20.69c-23.45,4.63-47.33,6.6-71.18,7.59
		c-36.93,1.52-74.62,2.69-110.63-7.09c-6.65-1.43-12.85-4.48-19.53-5.69c1.7,1.99,4.37,2.57,6.69,3.59
		c20.99,8.54,43.13,14.16,65.58,17.19c2.87,0.4,5.86,0.49,8.66,1.42c15.16,6.93,31.26,11.79,47.74,14.34
		c25.95,4.22,52.45,2.87,78.41-0.52c5.48-0.56,10.92-2.19,16.48-1.51c-11.3,10.23-25.39,16.87-39.44,22.53
		c-21.39,8.11-44.15,12.21-66.92,13.87c-33.28,2.38-66.93,0-99.48-7.4c-10.72-2.13-21.04-5.85-31.64-8.39
		c2.14,1.78,4.86,2.56,7.43,3.54c20.62,7.86,42.04,13.67,63.85,17.07c1.85,0.34,3.75,0.69,5.55,1.37
		c7.54,3.24,15.67,4.72,23.66,6.46c18.57,3.74,37.62,4.32,56.49,3.21c6.84-0.34,13.51-2.36,20.4-2.22
		c-4.34,4.49-10.01,7.37-15.31,10.54c-20.38,11.19-43.76,17.02-67.02,16.38c-11.37,0.29-22.68-0.96-34.02-1.44
		c-22.83-1.48-46.17-0.13-68.4-6.48c-4.64-1.12-8.88-3.45-13.55-4.4c4.23,3.88,9.9,5.6,15.07,7.88c12.86,4.96,26.43,7.78,40.05,9.73
		c2.87,0.43,5.85,0.54,8.63,1.53c21.07,8.37,42.28,16.83,64.55,21.52c-5.62,3.9-12.04,6.46-18.18,9.39
		c-11.78,5.05-24.16,9.58-37.12,9.82c-31.24,1.1-60.87-12.26-92.07-11.67c-0.67-0.1-2.02-0.3-2.69-0.4
		c-17.86-8.35-37.69-11.34-57.26-11.77c-24.25,0.27-48.23,4.92-71.51,11.51c-19.33,5.76-38.52,12.41-58.54,15.36
		c-14.67,2.07-29.91,1.66-44.08-2.9c-5.42-1.79-10.38-4.73-14.84-8.23c-0.98-4.9-1.11-9.92-1.65-14.88
		c-0.23-3.64-0.99-7.31-0.45-10.94c20.99-1.48,41.77-6.44,60.93-15.22c28.1-12.99,53.23-32.09,73.74-55.24
		c25.95-28.91,46.17-62.28,70.38-92.57c2.75-3.3,5.23-6.85,8.34-9.83c6.72,0.95,13.18,3.31,19.9,4.43
		c12.07,2.3,24.35,3.42,36.64,3.51c-11.03,10.31-20.92,21.76-30.07,33.74c-22.89,29.14-45.3,59.11-73.48,83.45
		c-11.43,9.82-23.62,18.81-36.76,26.21c-1.46,0.8-2.89,1.73-3.75,3.19c10.51-3.86,20.41-9.26,30.27-14.55
		c10.88-5.79,20.78-13.16,30.99-20.01c7.43-4.03,14.32-8.98,21.33-13.7c14.22-9.85,26.53-22.12,37.99-35
		c11.23-12.41,21.89-25.47,34.81-36.22c28.04-24.48,63.26-40.4,100.05-45.87c46.99-6.43,94.52-4.23,141.79-4.75
		C1775.474,621.863,1790.844,622.553,1806.184,621.873z"/>
	<path fill="#C6B5A4" stroke="#C6B5A4" d="M1010.534,653.163c1.21,0.82,1.13,1.43-0.24,1.84
		C1010.354,654.543,1010.474,653.623,1010.534,653.163z"/>
	<path fill="#FBFDFF" stroke="#FBFDFF" d="M335.954,679.033c34.37-13.54,71.11-22.41,108.23-21.5c21.82,0.63,43.34,5.87,63.49,14.14
		c24.65,10.19,47.38,24.46,68.84,40.17c35.16,25.83,67.31,55.45,101.76,82.19c61.2,49.5,116.92,105.28,177.36,155.67
		c5.57,4.29,10.56,9.42,16.53,13.15c0.46-0.16,1.39-0.47,1.85-0.63c-1.31-2.27-2.96-4.29-4.62-6.29
		c-12.82-15.44-26.11-30.51-40.1-44.91c-11.41-12.32-23.84-23.66-35.71-35.49c0.65-0.58,1.33-1.13,2.04-1.65
		c2.61-0.66,5.2-1.41,7.72-2.39c8.95-3.14,17.87-6.47,26.99-9.06c4.95,0,8.8,4.08,12.9,6.45c6.5,7.22,13.89,13.61,19.94,21.27
		c19.78,24.25,35.59,51.72,47.11,80.8c7.06,17.99,12.49,36.68,15.27,55.82c2.69,19.54,2.61,39.82-3,58.86
		c-4.66,14.88-12.16,29.52-24.57,39.39c-5.53,4.42-12.26,7.76-19.47,7.76c0.35-5.34,0.53-10.87-2.09-15.74
		c-2.83-7.27-6.14-14.72-12.32-19.79c-12.41-10.65-29.01-13.69-44.38-17.7c-36.84-9.33-73.82-18.73-109.18-32.84
		c-20.75-8.34-41.18-17.47-61.79-26.15c13.87-8.59,26.1-19.76,36.1-32.64c4.56-6.31,9.25-12.63,12.2-19.9
		c1.13-1.22,2.26-2.44,3.32-3.72c-10.85,4.19-20.47,10.92-30.59,16.55c-14.52,8.56-29.5,16.76-45.88,21.12
		c-22.71,6.04-46.36,7.71-69.78,7.64c-18.69,0.31-37.62-3.2-54.56-11.2c6.04-4.38,12.95-7.34,19-11.7
		c14.03-8.94,26.64-20.02,37.62-32.5c6.12-7.36,11.91-15.09,16.13-23.71c2.63-5.57,5.66-11.25,5.72-17.55
		c0.03-0.43,0.08-1.28,0.11-1.7c-5.32,4.65-9.93,10.04-15.19,14.77c-20.87,19.03-45.63,34.15-72.83,42.16
		c-18.15,4.93-37.27,8.09-56.05,5.2c-12.99-1.84-25.51-6.18-37.3-11.86c-6.65-3.27-13.26-6.74-19.06-11.4
		c5.45-2.29,11.31-3.36,16.8-5.54c20.93-7.8,40.19-20.21,55.74-36.27c9.98-10.87,19.21-23.06,23.73-37.27
		c2.02-2.28,4.08-4.53,5.94-6.94c-8.84,6.42-17.07,13.67-26.29,19.58c-26.96,18.01-57.98,30.2-90.26,33.93
		c-15.41,1.85-31.3,2.67-46.47-1.27c-17.62-4.38-33.9-13.3-48.05-24.56c5.78-0.72,11.54,0.53,17.33,0.24
		c18.01-0.81,36.19-2.62,53.44-8.17c13.16-3.89,25.6-9.9,37.42-16.79c10.73-6.48,21.5-13.68,28.77-24.12
		c4.64-6.97,7.91-14.78,10.3-22.78c7.9-6.76,16.59-12.87,23.02-21.14c-4.82,3.16-8.87,7.32-13.58,10.62
		c-32.8,24.33-72.32,38.36-112.45,44.53c-16.53,2.47-33.33,4.24-50.05,2.81c-18.38-1.27-36.6-4.67-54.23-10.02
		c5.9-1.72,12.02-2.49,17.95-4.05c19.58-4.75,38.43-11.96,57.34-18.81c14.77-5.56,29.93-10.09,44.45-16.34
		c17.21-7.04,34-15.12,51.38-21.76c16.94-6.88,34.9-11.22,53.09-13.09c27.34-2.59,55.08-0.63,81.86,5.46
		c43.43,9.83,83.71,30.14,121.02,54.03c14.01,8.25,26.99,18.23,41.41,25.75c27.01,19.51,54.02,39.6,76.4,64.48
		c4.45,4.68,7.93,10.2,12.54,14.75c-0.74-1.7-1.53-3.36-2.46-4.93c-17.48-28.19-43.86-48.95-68.89-70.03
		c-16.44-13.98-32.88-27.98-50.21-40.85c-13.02-9.86-26.84-18.59-40.65-27.28c-23.76-14.73-48.34-28.32-74.34-38.71
		c-32.67-13.21-68.24-20.94-103.57-17.38c-34.98,3.87-67.68,17.76-99.89,31.1c-29.94,12.21-59.93,24.44-90.74,34.3
		c-30.3,9.78-61.66,16.62-93.46,18.85c-14.33,0.38-28.79,0.54-42.95-2.16c-16.54-2.54-32.53-9.73-44.95-20.98
		c30.7-3.59,60.31-13.34,88.62-25.46c29.06-12.56,57.41-26.72,85.27-41.75C263.404,713.233,298.534,693.613,335.954,679.033z"/>
	<path fill="#BCCDD2" stroke="#BCCDD2" d="M1115.104,673.133c6.15-4.13,12.01-8.83,18.73-12.01c-6.96,16.43-13.91,32.95-18.63,50.2
		c-5.72,21.18-9.4,42.95-10.92,64.83c-1.17,27.94,4.6,55.49,6.36,83.27c0.27,7.22,0.28,14.49-0.8,21.66
		c-1.17,9.32-3.55,18.91-9.39,26.48c-5.8,7.87-15.55,12.87-25.38,12.39c-6.93-0.01-13.61-2.17-19.99-4.69
		c-11.08-4.57-21.31-10.97-30.97-18.01c-4.48-3.52-9.25-6.8-12.92-11.2c11.49,6.4,23.97,11.45,37.15,12.8
		c7.07,0.71,14.58,0.11,20.87-3.48c4.18-2.32,6.15-6.94,8.04-11.08c5.83-13.89,5.99-29.27,6.2-44.09
		c0.37-23.02-1.16-45.99-2.18-68.98c-0.17-14.27-0.77-28.7,2.07-42.77c1.82-9.86,5.37-19.29,9.67-28.32
		c2.49-5.63,6.13-10.66,8.6-16.3C1105.564,679.703,1110.604,676.673,1115.104,673.133z"/>
	<path fill="#BCCDD2" stroke="#BCCDD2" d="M1784.694,691.743c4.12-1.72,8.05-3.87,12.21-5.53c-8.33,13.01-18.7,24.8-30.77,34.44
		l-0.59-0.01c-5.56-0.68-11,0.95-16.48,1.51c-25.96,3.39-52.46,4.74-78.41,0.52c-16.48-2.55-32.58-7.41-47.74-14.34
		c13.05,0.69,26.1,2.12,39.2,1.87c26.54,0.31,53.08-2.16,79.24-6.62C1756.174,701.263,1770.834,697.553,1784.694,691.743z"/>
	<path fill="#BCCDD2" stroke="#BCCDD2" d="M353.144,772.273c29.69-12.15,60.8-22.28,93.09-23.63c22.04-1.01,44.02,3.39,64.73,10.72
		c26.9,9.58,52,23.35,76.95,37.07c16.95,9.29,33.22,19.78,48.91,31.07c13.69,9.95,27.57,19.72,40.5,30.65
		c-14.42-7.52-27.4-17.5-41.41-25.75c-37.31-23.89-77.59-44.2-121.02-54.03c-26.78-6.09-54.52-8.05-81.86-5.46
		c-18.19,1.87-36.15,6.21-53.09,13.09c-17.38,6.64-34.17,14.72-51.38,21.76c-14.52,6.25-29.68,10.78-44.45,16.34
		c-18.91,6.85-37.76,14.06-57.34,18.81c-5.93,1.56-12.05,2.33-17.95,4.05c-7.06-1.82-13.92-4.31-20.8-6.68
		c-4.01-1.51-8.21-2.64-11.93-4.81c5.85-1.35,11.82-2.09,17.63-3.61C249.334,819.263,300.664,793.753,353.144,772.273z"/>
	<path fill="#BCCDD2" stroke="#BCCDD2" d="M1716.504,757.623c1.2-0.27,2.44-0.47,3.71-0.62c-2.86,4.49-7.28,7.61-11.07,11.24
		c-1.19,0.83-2.19,2.3-3.7,2.44c-6.89-0.14-13.56,1.88-20.4,2.22c-18.87,1.11-37.92,0.53-56.49-3.21
		c-7.99-1.74-16.12-3.22-23.66-6.46c12.74,0.46,25.42,2.74,38.22,2.34C1667.764,766.023,1692.594,763.833,1716.504,757.623z"/>
	<path fill="#FFFFFF" stroke="#FFFFFF" d="M1118.344,782.223c0.38-5.7-0.52-11.5,0.59-17.13c0.18,7.38,0.21,14.77,0.18,22.17
		C1117.714,786.063,1118.584,783.823,1118.344,782.223z"/>
	<path fill="#FFFFFF" stroke="#FFFFFF" d="M1155.994,785.573c6.35-0.61,12.74-0.08,19.12-0.2c6.34,0.11,12.69-0.34,19.02,0.23
		c-8.98,0.53-18-0.03-27,0.18C1163.414,785.803,1159.674,786.093,1155.994,785.573z"/>
	<path fill="#99795A" stroke="#99795A" d="M1136.364,786.423c2.1-0.43,4.28-0.42,6.44-0.25
		C1141.774,787.903,1137.474,788.113,1136.364,786.423z"/>
	<path fill="#A4A1CF" stroke="#A4A1CF" d="M1119.044,793.103c14.02-0.21,28.04,0.86,42.07,0.8c21.86,0.79,43.77,1.61,65.52,3.9
		c0,0.52-0.02,1.55-0.02,2.06c-7.85,17.56-10.19,36.91-13.1,55.75c-1.37,13.51-6.2,27.19-2.54,40.75
		c3.23,14.84,13.36,26.75,23.29,37.71c13.29,14.46,25.66,29.74,37.79,45.18c-6.78-2.11-12.1-7.09-17.18-11.81
		c-7.3-6.68-13.68-14.44-21.97-19.97c-7.07-4.73-16.1-7.13-24.46-4.91c-6.09,1.25-11.59,4.61-15.73,9.21
		c-9.48,9.9-13.76,23.32-21.84,34.21c-3.95,5.35-8.84,10.28-15.07,12.89c-8.68,3.85-18.42,2.63-27.63,2.53
		c-10.97-1.17-22.14-1.47-32.97,0.9c-17.52,3.7-35.03,10.34-48.41,22.59c-13.03,11.65-22.28,27.28-26.84,44.11
		c-4.17,17.37-0.35,35.22,2.98,52.38c2.38,12.76,4.93,25.94,2.43,38.89c-2.38,14.93-12.22,27.21-22.37,37.84
		c-22.71,22.96-51.53,39.04-72.97,63.36c-13.71-13.77-24.78-30.01-34.38-46.85c-8.42-15.89-16.67-32.08-21.78-49.39
		c7.7-0.4,15.48-0.93,22.81-3.52c17.38-5.65,31.03-19.32,40.07-34.83c14.59-25.19,20.1-54.83,19.07-83.7
		c-1.16-38.58-14.22-76.36-34.95-108.75c-18.29-28.38-43.06-52.91-72.8-69.15c-3.26-1.94-7.03-3.07-9.87-5.66
		c38.21-11.83,76.7-22.78,114.71-35.2c4.82,8.96,8.28,18.59,13.7,27.23c15.37,26.53,36.41,50.28,62.7,66.37
		c15.77,9.52,34.14,16.51,52.85,14.22c11.64-1.48,23.37-6.9,30.32-16.65c5.08-7.25,7.75-15.88,9.49-24.48
		c3.66-20.45,3-41.39,0.52-61.94C1121.704,817.113,1118.954,805.203,1119.044,793.103z"/>
	<path fill="#AD947C" stroke="#AD947C" d="M1263.354,795.193c0.62,0,1.86,0,2.47-0.01
		C1266.444,796.973,1262.724,796.973,1263.354,795.193z"/>
	<path fill="#6E6AA6" stroke="#6E6AA6" d="M1236.054,798.653c3.12,0.01,6.24,0.32,9.34,0.78c-2.79,1.78-6.29,1.73-9.47,1.77
		C1235.954,800.563,1236.024,799.293,1236.054,798.653z"/>
	<path fill="#DBDBEE" stroke="#DBDBEE" d="M1213.514,855.613c2.91-18.84,5.25-38.19,13.1-55.75c0.49,5.56-0.9,11.03-1.04,16.57
		c-0.38,12.58-1.27,25.17-0.49,37.76c0.52,8.84,0.42,17.91,2.57,26.53c25.41,27.27,53.6,51.91,82.41,75.55
		c3.28,2.99,7.15,5.37,10.07,8.76c-9.43,5.69-19.18,11.05-29.61,14.66c-5.88,2.03-12.91,2.56-18.47-0.44
		c-12.13-15.44-24.5-30.72-37.79-45.18c-9.93-10.96-20.06-22.87-23.29-37.71C1207.314,882.803,1212.144,869.123,1213.514,855.613z"
		/>
	<path fill="#BCCDD2" stroke="#BCCDD2" d="M1570.894,804.423c23.7,1.96,47.22,7.62,71.15,6.18c8.53,0.07,16.81-1.96,25.16-3.35
		c-6.09,4.82-13.28,7.99-19.79,12.18c-3.97,2.19-7.7,4.93-11.97,6.51C1613.174,821.253,1591.964,812.793,1570.894,804.423z"/>
	<path fill="#BCCDD2" stroke="#BCCDD2" d="M337.004,860.093c28.44-8.58,55.21-22.33,79.11-39.93c-2.39,8-5.66,15.81-10.3,22.78
		c-7.27,10.44-18.04,17.64-28.77,24.12c-11.82,6.89-24.26,12.9-37.42,16.79c-17.25,5.55-35.43,7.36-53.44,8.17
		c-5.79,0.29-11.55-0.96-17.33-0.24c-8.6-6.87-17.07-14.18-23.93-22.83c7.43,0.01,14.8,1.27,22.23,1.46
		C290.794,870.873,314.424,867.003,337.004,860.093z"/>
	<path fill="#BCCDD2" stroke="#BCCDD2" d="M1356.614,832.823c23.28-6.59,47.26-11.24,71.51-11.51c19.57,0.43,39.4,3.42,57.26,11.77
		c-7.38,0.89-14.84,0.07-22.22,1.04c-40.85,2.6-79.89,16.88-116.44,34.6c-24.17,11.54-47.81,24.28-70.25,38.93
		c-1.61,1.59-3.37-0.15-4.67-1.16c-8.81-7.48-17.59-15-26.25-22.64c-1.85-1.43-1.65-3.98-1.99-6.04
		c-1.12-13.63-3.41-27.13-4.41-40.76c4.46,3.5,9.42,6.44,14.84,8.23c14.17,4.56,29.41,4.97,44.08,2.9
		C1318.094,845.233,1337.284,838.583,1356.614,832.823z"/>
	<path fill="#FFFFFF" stroke="#FFFFFF" d="M144.844,838.923c3.19-0.4,6.46-0.75,9.64-0.02
		C151.284,839.323,148.044,839.253,144.844,838.923z"/>
	<path fill="#BCCDD2" stroke="#BCCDD2" d="M843.234,868.883c12.71,7.15,23.89,16.75,34.31,26.89c13.88,13.75,25.86,29.4,35.7,46.27
		c19.6,33.74,31.2,72.83,29.42,112.05c-1.22,18.16-4.41,36.37-11.37,53.27c-5.72,13.99-14.61,27.27-27.54,35.51
		c-11.88,7.67-26.94,11.62-40.79,7.5c-15.27-4.5-27.05-16.31-35.98-29.02c-5.91-8.74-12.48-17.88-13.06-28.81
		c6.57,0.94,13.01,2.67,19.42,4.42c13.53,3.78,27.19,9.6,36.76,20.24c1.62,1.66,3.14,3.91,5.74,3.9c0.24-1.36,0.43-2.71,0.58-4.06
		c2.62,4.87,2.44,10.4,2.09,15.74c7.21,0,13.94-3.34,19.47-7.76c12.41-9.87,19.91-24.51,24.57-39.39c5.61-19.04,5.69-39.32,3-58.86
		c-2.78-19.14-8.21-37.83-15.27-55.82c-11.52-29.08-27.33-56.55-47.11-80.8C857.124,882.493,849.734,876.103,843.234,868.883z"/>
	<path opacity="0.82" fill="#7F664E" stroke="#7F664E" enable-background="new    " d="M796.284,873.343c1.65-1.37,3.5-2.68,5.68-3
		c0.34,0.29,1.03,0.86,1.38,1.15c-2.52,0.98-5.11,1.73-7.72,2.39L796.284,873.343z"/>
	<path fill="#BCCDD2" stroke="#BCCDD2" d="M400.864,921.023c27.33-11.79,51.3-29.98,73.12-49.98c-4.52,14.21-13.75,26.4-23.73,37.27
		c-15.55,16.06-34.81,28.47-55.74,36.27c-5.49,2.18-11.35,3.25-16.8,5.54c-6.36-4.98-12.71-10.26-17.59-16.72
		C374.074,930.663,387.874,926.903,400.864,921.023z"/>
	<path fill="#D9CEC3" stroke="#D9CEC3" d="M791.154,873.573c0.45-0.08,1.35-0.22,1.8-0.3
		C792.594,874.683,791.994,874.783,791.154,873.573z"/>
	<path fill="#E1D9D1" stroke="#E1D9D1" d="M1281.184,912.583l0.36-0.35c-0.06,0.21-0.18,0.61-0.24,0.82L1281.184,912.583z"/>
	<path fill="#BCCDD2" stroke="#BCCDD2" d="M545.124,946.243c12.12-9.91,22.61-21.56,32.91-33.29c-0.06,6.3-3.09,11.98-5.72,17.55
		c-4.22,8.62-10.01,16.35-16.13,23.71c-10.98,12.48-23.59,23.56-37.62,32.5c-6.05,4.36-12.96,7.32-19,11.7
		c-8.68-3.96-17.38-8.5-24.44-14.98C500.914,976.593,524.754,963.383,545.124,946.243z"/>
	<path fill="#987759" stroke="#987759" d="M335.234,934.533c2.17-0.31,4.74-1.11,6.64,0.45
		C339.914,935.943,337.004,935.843,335.234,934.533z"/>
	<path fill="#E2A5C9" stroke="#E2A5C9" d="M1198.454,959.573c3.89-4.13,8.77-7.85,14.61-8.42c6.82-0.65,13.55,2.11,18.92,6.18
		c7.81,5.8,13.66,13.67,20.52,20.47c5.56,5.7,12.09,10.95,19.95,12.94c3.43,0.93,7,0.52,10.51,0.67
		c20.68,25.22,46.11,46.25,73.5,63.82c-7.77,3.23-15.95,5.38-23.73,8.62c-38.2,14.7-74.37,34.23-109.06,55.86
		c-31.19,19.66-61.74,40.45-90.39,63.68c-26.93,21.86-52.32,45.69-74.96,71.98c-16.03,18.75-31.71,38.18-42.55,60.49
		c-2.44,4.41-3.94,9.27-6.53,13.59c-15.13-11.64-30.74-22.7-45.22-35.17c-6.69-5.25-12.63-11.34-19.01-16.95
		c-3.58-3.22-6.93-6.67-10.19-10.2c11.45-13.33,25.71-23.87,39.39-34.79c15.32-11.87,30.63-24.07,43.08-39.02
		c8.12-9.71,14.36-21.37,15.81-34.08c1.37-12.69-0.52-25.44-3.25-37.81c-2.03-10-5.02-19.94-4.76-30.23
		c-0.3-19.79,8.02-39.19,21.48-53.54c10.62-11.11,23.97-19.8,38.73-24.25c18.29-5.38,37.52-2.06,56.23-3.71
		c9.27-0.84,19.6-1.58,26.72-8.34C1181.104,989.593,1186.804,972.343,1198.454,959.573z"/>
	<path fill="#D6C900" stroke="#D6C900" d="M1856.454,963.263c0.35-1.98,4.92-1.96,5.31,0.03
		C1859.964,963.283,1858.194,963.273,1856.454,963.263z"/>
	<path fill="#BCCDD2" stroke="#BCCDD2" d="M679.294,980.403c5.79-4.3,11.35-9,17.76-12.38c-2.95,7.27-7.64,13.59-12.2,19.9
		c-10,12.88-22.23,24.05-36.1,32.64c-6.81-2.65-13.72-5.04-20.52-7.69c0.9-0.63,1.83-1.2,2.83-1.65
		C648.944,1004.103,664.164,992.013,679.294,980.403z"/>
	<path fill="#D6C900" stroke="#D6C900" d="M1844.564,970.593c-1.09-1.39,1.31-3.48,2.54-2.19
		C1846.524,969.413,1845.634,970.183,1844.564,970.593z"/>
	<path fill="#F9EE09" stroke="#F9EE09" d="M1855.414,970.513c2.33-1.43,6.22-2.26,7.52,0.94c2.94,7.25,0.64,15.24,1.19,22.81
		c0.06,7.63,3.68,15.58,10.68,19.2c8.69,4.49,18.89,4.17,28.4,3.48c8.62-0.53,17.22-3.09,25.89-1.72c3.92,0.59,8.2,2.87,9.03,7.11
		c1.45,7.06-2.42,13.62-4.81,20.01c-4.29,10.33-6.37,22.27-2.41,33.03c1.25,3.98,4.1,7.1,6.22,10.62
		c-14.84,4.12-29.31,9.57-43.32,15.92c-29.93,13.95-56.78,33.37-83.72,52.24c-7.46,5.18-14.95,10.72-23.82,13.2
		c-12.9,3.89-26.69,2.54-39.56-0.69c-18.72-5.03-36.29-13.36-54.03-20.98c-16.99-7.32-35-12.65-53.53-13.83
		c1.16-6.02,3.22-12.08,6.86-17.07c42.25,5.57,84.5,11.58,127.06,14.35c3.28,0.22,6.63,0.68,9.9-0.07
		c-0.11-3.17-3.46-4.43-5.62-6.07c-5.3-3.68-11.46-5.61-17.41-7.88c2-5.05,5.29-9.45,7.71-14.29c10.03-18.44,18.99-37.44,29.4-55.66
		c11.9-21.12,26.6-40.47,41.6-59.43C1843.724,980.173,1848.784,974.283,1855.414,970.513z"/>
	<path fill="#F7DFEC" stroke="#F7DFEC" d="M1303.834,985.933c9.19-3.29,17.67-8.19,26.3-12.68c4.36,2.42,7.83,6.19,11.88,9.11
		c23.57,18.84,48.04,36.76,74.46,51.45c3.48,2.23,7.69,3.42,10.71,6.33c-8.29,1.74-16.77,2.4-25.07,4.09
		c-15.47,2.57-30.55,6.98-45.65,11c-27.39-17.57-52.82-38.6-73.5-63.82C1289.984,989.853,1297.144,988.713,1303.834,985.933z"/>
	<path fill="#FFFFFF" stroke="#FFFFFF" d="M435.924,987.753c5.83,0.12,11.72-0.8,17.5,0.24
		C447.594,988.193,441.734,988.193,435.924,987.753z"/>
	<path fill="#D4C7BB" stroke="#D4C7BB" d="M611.134,1017.713c1.21-0.8,2.71-0.8,3.96-0.04
		C613.774,1018.923,612.454,1018.933,611.134,1017.713z"/>
	<path fill="#E0EBAD" stroke="#E0EBAD" d="M1377.774,1066.723c22.96-6.69,46.74-10.01,70.42-13.02c5.75-0.32,11.71-1.84,17.34,0.09
		c21.09,6.53,42.63,11.73,64.53,14.56c26.73,3.92,54.43,1,80.46,9.4c4.89,1.87,10.48,2.83,14.6,6.2
		c-8.55,5.76-15.36,13.68-20.98,22.25c-2.57,3.55-4.46,7.56-7.24,10.96c-45.51-3.97-91.16-8.69-135.71-19.2
		c-22.79-5.54-45.33-12.48-66.7-22.23C1388.864,1072.833,1382.554,1071.043,1377.774,1066.723z"/>
	<path fill="#FFFFFF" stroke="#FFFFFF" d="M1946.774,1067.503c-0.44-3.19-0.38-6.41,0.01-9.58
		C1947.204,1061.093,1947.204,1064.313,1946.774,1067.503z"/>
	<path fill="#98C849" stroke="#98C849" d="M1295.724,1098.733c26.36-12.96,53.65-24.45,82.05-32.01c4.78,4.32,11.09,6.11,16.72,9.01
		c21.37,9.75,43.91,16.69,66.7,22.23c44.55,10.51,90.2,15.23,135.71,19.2c-10.16,17.64-20.49,35.23-29.3,53.6
		c-8.57,17.55-16.19,35.56-22.98,53.87c-12.43,33.33-25.44,67.05-29.19,102.69c-1.42,12.74,0.4,25.67,4.35,37.83
		c-14.2-4.81-27-12.97-39.49-21.11c-16.99-11.18-32.94-23.87-50.02-34.9c-17.12-11.17-35.61-20.63-55.5-25.7
		c-6.98-2.03-14.14-3.28-21.21-4.87c-2.49-2.14-4.15-5.03-6.32-7.45c-3.12-3.84-6.82-7.15-9.81-11.08c1.89-2.9,4.88-4.8,7.26-7.26
		c12.46-12.27,24.1-25.38,34.72-39.28c12.84-17.48,22.83-36.89,31.19-56.87c2.85-7.51,6.55-14.77,8.41-22.62
		c-1.08,0.65-1.85,1.64-2.37,2.78c-14.78,30.22-35.42,57.18-58.11,81.86c-20.06,21.59-41.63,41.71-63.7,61.24
		c-1.09,0.85-1.88,1.97-1.7,3.45c2.25,0.2,4.33-0.84,6.35-1.69c7.26-3.38,14.67-6.46,21.56-10.56c2.26-1.32,4.45-2.84,6.92-3.77
		c9.88,11.61,17.48,25.04,24.6,38.49c8.84,17.27,16.32,35.2,23.74,53.11c8.6,21.29,15.2,43.33,20.54,65.64
		c4.41,18.25,7.98,36.73,9.74,55.43c1.36,12.95,2.33,25.96,4.08,38.86c-6.21,3.47-13.09,5.55-19.67,8.21
		c-18.44,7.13-37.63,12.25-57.09,15.72c-19.78,3-39.7,5.22-59.65,6.7c-18.79-0.91-37.6-3.93-55.46-9.91
		c-7.07-2.76-14.49-4.94-20.79-9.29c9.5,2.72,19.19,5.23,29.15,5.27c16.91,0.64,34.6-2.04,49.15-11.15
		c13.26-8.39,22.95-21.45,29.51-35.53c9.67-20.74,13.98-43.86,13.24-66.69c-1.04-29.72-10.09-58.72-23.62-85.04
		c5.15-4.53,12.04-6.9,16.57-12.16c0.07-0.38,0.21-1.15,0.28-1.54c-8.35,1.64-16.2,5.15-24.32,7.62
		c-20.68,6.98-41.02,14.91-61.46,22.56c-15.61,5.83-31.42,11.24-46.34,18.72c-23.35,11.32-45.6,24.7-68.32,37.19
		c-5.44-4.2-10.25-9.14-15.66-13.37c-4.14-3.63-8.93-6.53-12.47-10.81c9.16-14.85,18.1-30.24,22.78-47.18
		c-3.48-2.38-7.76-3.04-11.54-4.76c-5.36-2.35-11.06-4.05-16.04-7.16c17.22-30.31,37.56-58.74,59.4-85.87
		c24.1-29.65,50.08-57.89,78.99-82.93c15.16-13.29,30.7-26.16,46.9-38.16c4.34-3.4,9.15-6.21,13.04-10.16
		C1282.974,1104.993,1289.434,1101.933,1295.724,1098.733z"/>
	<path fill="#D6C900" stroke="#D6C900" d="M1893.804,1101.913c14.01-6.35,28.48-11.8,43.32-15.92c6.53,4.89,13.46,9.36,21.27,11.99
		c3.48,1.63,8.02,2.09,10.42,5.39c-0.55,2.52-3.35,3.82-5.43,5c-18,8.23-38.22,9.31-56.56,16.55
		c-31.25,11.64-58.05,31.97-87.15,47.78c-12.13,6.25-24.39,13.12-38.11,15.06c-18.07,2.86-36.26-1.69-53.17-7.81
		c-20.18-7.27-39.43-17.03-60.08-23c-24.09-6.33-49.31-7.28-74.04-5.15c2.32-6.13,6.03-11.59,9.09-17.36
		c4.59-7.69,9.08-15.49,14.28-22.78c3.18-0.38,6.35,0.37,9.52,0.71c6.27,0.87,12.57,1.48,18.84,2.41
		c-3.64,4.99-5.7,11.05-6.86,17.07c18.53,1.18,36.54,6.51,53.53,13.83c17.74,7.62,35.31,15.95,54.03,20.98
		c12.87,3.23,26.66,4.58,39.56,0.69c8.87-2.48,16.36-8.02,23.82-13.2C1837.024,1135.283,1863.874,1115.863,1893.804,1101.913z"/>
	<path fill="#599330" stroke="#599330" d="M1625.114,1102.073c3.71-4.62,9.43-8.88,15.61-8.44c3.95,2.2,7.08,5.76,9.46,9.58
		C1641.814,1103.343,1633.434,1102.813,1625.114,1102.073z"/>
	<path fill="#579A32" stroke="#579A32" d="M1259.134,1118.293c6.1-2.92,11.51-7.4,18.11-9.16c-3.89,3.95-8.7,6.76-13.04,10.16
		c-16.2,12-31.74,24.87-46.9,38.16c-28.91,25.04-54.89,53.28-78.99,82.93c-21.84,27.13-42.18,55.56-59.4,85.87
		c-3.33-0.85-5.94-3.7-9.41-3.9c-10.4,16.91-21.75,33.39-35.58,47.72c-5.75,5.79-11.37,11.87-17.98,16.7
		c-3.19-1.48-6.08-3.59-8.71-5.89c-1.15-4.43,0.54-9.05,1.24-13.45c7.86-33.58,26.66-63.36,47.69-90.22
		c23.45-29.41,51.27-55.04,80.8-78.23C1175.444,1168.883,1216.934,1142.823,1259.134,1118.293z"/>
	<path fill="#6C6CB1" stroke="#6C6CB1" d="M828.054,1146.223c4.62,3.78,8.9,8.08,14.34,10.74c9.6,5.41,20.61,7.41,31.47,8.27
		c5.11,17.31,13.36,33.5,21.78,49.39c9.6,16.84,20.67,33.08,34.38,46.85c-4.04,5.44-8.75,10.37-12.81,15.82
		c-3.74,4.36-6.66,9.34-10.33,13.74c-1.16-0.15-1.82-1.25-2.59-1.95c-11.19-13.32-22-27.01-31.36-41.69
		c-11.28-17.48-20.61-36.17-28.73-55.3C838.174,1177.053,832.184,1161.903,828.054,1146.223z"/>
	<path fill="#599330" stroke="#599330" d="M1588.084,1168.103c19.45-0.78,39.07-2.36,58.42,0.62c4.11,0.65,8.27,1.09,12.36,1.96
		c-1.73,13.32-5.76,26.25-9.08,39.26c-9.64,36.75-24.47,72.17-44.31,104.59c-4.94,7.79-9.58,15.88-15.62,22.89
		c-3.9-6.37-6.11-13.54-8.35-20.6c-5.52-18.04-8.35-36.84-8.96-55.67c0.8-29.7,6.08-59.02,11.41-88.17
		C1584.444,1170.883,1585.304,1167.713,1588.084,1168.103z"/>
	<path fill="#446F2A" stroke="#446F2A" d="M1578.704,1183.833c1.8-3.59,2.75-7.64,5.25-10.85c-5.33,29.15-10.61,58.47-11.41,88.17
		c0.61,18.83,3.44,37.63,8.96,55.67c2.24,7.06,4.45,14.23,8.35,20.6c-2.37,4.27-6.09,7.6-9.38,11.17
		c-6.34,6.44-13.01,12.87-21.31,16.72c-6.25,3.18-13.61,5.05-20.56,3.55c-7.2-9.95-8.99-22.67-8.49-34.67
		c1.48-27.76,11.76-53.97,21.33-79.76C1560.314,1230.823,1568.314,1206.843,1578.704,1183.833z"/>
	<path fill="#BD67A6" stroke="#BD67A6" d="M921.354,1282.453c4.42-5.17,8.47-10.7,13.47-15.32c3.26,3.53,6.61,6.98,10.19,10.2
		c6.38,5.61,12.32,11.7,19.01,16.95c14.48,12.47,30.09,23.53,45.22,35.17c-2.72,8.57-6.2,16.95-8.05,25.8
		c-1.67,6.21-2.01,12.64-3.13,18.95c-6.23-3.05-11.39-7.9-16.96-11.97c-23.01-17.76-44.57-37.41-64.16-58.88
		c-2.01-2.33-4.64-4.28-5.86-7.16C913.734,1291.103,917.994,1287.063,921.354,1282.453z"/>
	<path fill="#FFFFFF" stroke="#FFFFFF" d="M1364.194,1295.513c-1.41-1.15-1.61-3.93,0.89-2.85
		C1365.624,1293.853,1365.324,1294.813,1364.194,1295.513z"/>
	<path fill="#693A0C" stroke="#693A0C" d="M1287.964,1331.063c8.12-2.47,15.97-5.98,24.32-7.62c-0.07,0.39-0.21,1.16-0.28,1.54
		c-4.53,5.26-11.42,7.63-16.57,12.16c13.53,26.32,22.58,55.32,23.62,85.04c0.74,22.83-3.57,45.95-13.24,66.69
		c-6.56,14.08-16.25,27.14-29.51,35.53c-14.55,9.11-32.24,11.79-49.15,11.15c-9.96-0.04-19.65-2.55-29.15-5.27
		c-13.97-5.48-27.23-13.42-37.09-24.9c-12.31-14.1-19.86-31.82-23.9-49.97c-1.76-7.57-2.68-15.29-3.89-22.95
		c-0.77-5.18-0.11-10.64-1.74-15.62c-2.88-3.14-6.09-6.03-9.46-8.61c-3.09,0.22-5.99,1.42-8.93,2.3c-0.29-0.25-0.86-0.75-1.15-1
		c22.72-12.49,44.97-25.87,68.32-37.19c14.92-7.48,30.73-12.89,46.34-18.72C1246.944,1345.973,1267.284,1338.043,1287.964,1331.063
		 M1272.374,1348.363c-19.93,8.88-40.79,15.39-61.27,22.83c-20.8,7.56-40.66,17.38-60.99,26.04c-4.8,2.33-10.09,3.57-14.68,6.28
		c0.1,1.9,0.1,4.34,2.02,5.42c9.63,6.33,20.51,10.66,31.74,13.19c19.11,4.19,39.71,3.63,57.94-3.91
		c16.1-6.93,29.96-18.85,39.44-33.59c8.15-12.66,14.03-26.81,17.62-41.41C1280.094,1344.553,1276.314,1346.663,1272.374,1348.363
		 M1292.514,1349.163c-2.31,12.6-6.13,25.01-12,36.43c-6.5,12.87-16.06,23.99-27.33,32.92c-0.25,1.49,0.8,2.82,1.39,4.16
		c3.76,6.75,7.26,13.67,10.22,20.83c7.86,18.79,8.91,39.49,9.62,59.58c4.46-3.42,7.9-7.95,11.19-12.46
		c9.57-13.72,14.71-30.02,17.71-46.34c4.58-25.22,2.46-51.34-4.27-75.98C1297.064,1361.873,1295.614,1355.163,1292.514,1349.163
		 M1139.984,1422.443c0.91,6.95,3.61,13.5,5.7,20.16c7.09,20.8,17.29,41.28,33.63,56.39c12.85,11.87,30.12,19.57,47.73,19.32
		c-1.93-23.69-5.3-47.37-11.65-70.31c-1.49-4.23-2-8.94-4.41-12.75c-3.02-0.08-6.02,0.33-9.02,0.54
		C1180.604,1437.193,1158.734,1432.913,1139.984,1422.443 M1222.374,1432.713c0.03,0.92,0.21,1.84,0.52,2.76
		c10.49,26.21,16.35,54.27,17.67,82.46c7.85-0.73,15.77-2.91,22.59-6.92c0.73-8.94-1.12-17.91-1.73-26.83
		c-2.65-20.95-6.46-42.03-14.38-61.68C1239.304,1426.963,1231.074,1430.583,1222.374,1432.713z"/>
	<path fill="#CBDE7A" stroke="#CBDE7A" d="M1074.294,1330.623c7.74,3.75,15.28,7.99,23.44,10.84c-3.12,8.82-7.68,17.06-11.78,25.46
		c-2.56,4.84-5.01,9.77-7.98,14.39c-6.96-4.97-13.37-10.64-20.2-15.78c-1.95-1.46-3.63-3.24-5.16-5.1
		C1060.624,1351.083,1067.624,1340.943,1074.294,1330.623z"/>
	<path fill="#CBDE7A" stroke="#CBDE7A" d="M1272.374,1348.363c3.94-1.7,7.72-3.81,11.82-5.15c-3.59,14.6-9.47,28.75-17.62,41.41
		c-9.48,14.74-23.34,26.66-39.44,33.59c-18.23,7.54-38.83,8.1-57.94,3.91c-11.23-2.53-22.11-6.86-31.74-13.19
		c-1.92-1.08-1.92-3.52-2.02-5.42c4.59-2.71,9.88-3.95,14.68-6.28c20.33-8.66,40.19-18.48,60.99-26.04
		C1231.584,1363.753,1252.444,1357.243,1272.374,1348.363z"/>
	<path fill="#CBDE7A" stroke="#CBDE7A" d="M1292.514,1349.163c3.1,6,4.55,12.71,6.53,19.14c6.73,24.64,8.85,50.76,4.27,75.98
		c-3,16.32-8.14,32.62-17.71,46.34c-3.29,4.51-6.73,9.04-11.19,12.46c-0.71-20.09-1.76-40.79-9.62-59.58
		c-2.96-7.16-6.46-14.08-10.22-20.83c-0.59-1.34-1.64-2.67-1.39-4.16c11.27-8.93,20.83-20.05,27.33-32.92
		C1286.384,1374.173,1290.204,1361.763,1292.514,1349.163z"/>
	<path fill="#90C148" stroke="#90C148" d="M1032.514,1380.543c7.29-6.1,13.68-13.14,20.1-20.11c1.53,1.86,3.21,3.64,5.16,5.1
		c6.83,5.14,13.24,10.81,20.2,15.78c-5.1,10.1-11.35,19.62-17.82,28.91c-2.65,3.29-4.71,7.22-8.08,9.85c-5-2.3-9.12-6.12-13.66-9.17
		c-7.42-5.46-14.59-11.34-20.93-18.02C1022.184,1388.443,1027.804,1385.023,1032.514,1380.543z"/>
	<path fill="#579A32" stroke="#579A32" d="M1056.324,1423.043c9.34-12.39,18.67-24.83,27.39-37.69c3.54,4.28,8.33,7.18,12.47,10.81
		c5.41,4.23,10.22,9.17,15.66,13.37c0.29,0.25,0.86,0.75,1.15,1c6.87,7.16,13.49,14.54,20.13,21.93c1.21,7.66,2.13,15.38,3.89,22.95
		c4.04,18.15,11.59,35.87,23.9,49.97c9.86,11.48,23.12,19.42,37.09,24.9c6.3,4.35,13.72,6.53,20.79,9.29
		c17.86,5.98,36.67,9,55.46,9.91c-14.27,1.43-28.61,2.36-42.94,3.2c-19.05,1.25-38.43,1.56-57.16-2.64
		c-10.17-2.25-20.27-6.61-27.39-14.43c-4.79-5.14-7.66-11.69-9.77-18.3c-4.32-12.34-5.71-25.65-11.58-37.44
		c-5.43-11.53-14.99-20.44-25.06-27.94C1086.174,1441.563,1070.994,1432.653,1056.324,1423.043z"/>
	<path fill="#98C849" stroke="#98C849" d="M1112.994,1410.533c2.94-0.88,5.84-2.08,8.93-2.3c3.37,2.58,6.58,5.47,9.46,8.61
		c1.63,4.98,0.97,10.44,1.74,15.62C1126.484,1425.073,1119.864,1417.693,1112.994,1410.533z"/>
	<path fill="#CBDE7A" stroke="#CBDE7A" d="M1139.984,1422.443c18.75,10.47,40.62,14.75,61.98,13.35c3-0.21,6-0.62,9.02-0.54
		c2.41,3.81,2.92,8.52,4.41,12.75c6.35,22.94,9.72,46.62,11.65,70.31c-17.61,0.25-34.88-7.45-47.73-19.32
		c-16.34-15.11-26.54-35.59-33.63-56.39C1143.594,1435.943,1140.894,1429.393,1139.984,1422.443z"/>
	<path fill="#CBDE7A" stroke="#CBDE7A" d="M1222.374,1432.713c8.7-2.13,16.93-5.75,24.67-10.21c7.92,19.65,11.73,40.73,14.38,61.68
		c0.61,8.92,2.46,17.89,1.73,26.83c-6.82,4.01-14.74,6.19-22.59,6.92c-1.32-28.19-7.18-56.25-17.67-82.46
		C1222.584,1434.553,1222.404,1433.633,1222.374,1432.713z"/>
	<path fill="#FBD39C" stroke="#FBD39C" d="M1423.324,1487.973c1.23,3.95,0.27,8.16,0.53,12.23c-0.24,4.05,0.65,8.25-0.5,12.22
		C1423.444,1504.263,1423.354,1496.113,1423.324,1487.973z"/>
	<path fill="#F9EE09" stroke="#F9EE09" d="M1022.294,1493.363c17.15-3.25,34.4,2.14,50.23,8.4c12.51,5.02,24.56,11.11,37.18,15.87
		c3.79,1.63,7.89,2.51,11.59,4.37c1.63,3.54,3.09,7.23,3.91,11.07c-0.12,9.77,1.17,19.78,5.34,28.72
		c6.52,14.96,17.53,27.8,30.96,37.02c2.98,1.99,5.95,4,8.89,6.08c-12.4,2.32-25.16,0.59-37.5-1.35
		c-38.13-6.47-73.33-23.16-109.15-36.97c-10.19-3.72-20.23-8.11-30.83-10.5c3.95,4.46,10.49,5.55,15.01,9.43
		c11.74,38.6,28.91,75.35,39.66,114.27c2.62,9.25,5.49,18.51,6.67,28.09c-13.63,9.39-25.46,21.28-39.78,29.7
		c-5.63,3.14-12.33,6.23-18.84,4.08c-4.77-1.45-7.54-5.92-10.07-9.86c-5.61-8.79-9.63-18.59-16.28-26.69
		c-7.06-9.08-18.76-14.33-30.22-13.63c-10.42,0.08-20.22,4.01-30.2,6.44C926.684,1620.953,966.584,1549.323,1022.294,1493.363z"/>
	<path fill="#F9F6B3" stroke="#F9F6B3" d="M987.354,1518.453c8.37-11.93,20.19-22.43,34.94-25.09
		c-55.71,55.96-95.61,127.59-113.43,204.54c-3.59,1.65-7.66,2.29-11.58,1.94c-3.54-0.62-5.81-4.24-5.86-7.65
		c-0.43-8.34,2.31-16.39,4.34-24.36c10.26-35.36,30.19-66.89,51.44-96.59C960.164,1553.323,973.834,1535.943,987.354,1518.453z"/>
	<path fill="#FFFFFF" stroke="#FFFFFF" d="M1115.404,1508.173c-0.32-1.48,0.24-2.06,1.69-1.73
		C1117.264,1507.763,1116.694,1508.333,1115.404,1508.173z"/>
	<path fill="#D6C900" stroke="#D6C900" d="M1125.204,1533.073c3.74,5.86,6.59,12.43,11.77,17.27c12.1,12,29.55,16.23,45.95,18.25
		c15.59,1.99,31.37,1.48,47.04,0.97c-1.46,3.45-4.7,5.64-7.13,8.37c-13.92,14.28-32.39,24.9-52.44,26.96
		c-2.94-2.08-5.91-4.09-8.89-6.08c-13.43-9.22-24.44-22.06-30.96-37.02C1126.374,1552.853,1125.084,1542.843,1125.204,1533.073z"/>
	<path fill="#D6C900" stroke="#D6C900" d="M1007.924,1565.503c9.62,4.43,18.64,10.1,28.15,14.8c2.39,0.94,3.42,3.35,4.37,5.57
		c15.86,34.84,38.52,66.65,49.37,103.68c1.52,5.44,3,10.92,4.03,16.49c-4.2-1.43-8.25-3.49-12.71-3.93
		c-9.3-1.12-18.63,1.61-26.88,5.75c-1.18-9.58-4.05-18.84-6.67-28.09C1036.834,1640.853,1019.664,1604.103,1007.924,1565.503z"/>
	<path fill="#D9CFC4" stroke="#D9CFC4" d="M1056.564,1592.523c-1.36-1.71,1.7-1.71,2.04-0.26l-0.43,0.73
		C1057.774,1592.873,1056.964,1592.643,1056.564,1592.523z"/>
	<path fill="#F3EFEB" stroke="#F3EFEB" d="M1059.404,1592.523c0.14,0.03,0.4,0.1,0.53,0.13
		C1059.804,1592.623,1059.544,1592.553,1059.404,1592.523z"/>
</g>
</svg>
